<?xml version="1.0" encoding="UTF-8" standalone="no"?>
<!-- Created with Inkscape (http://www.inkscape.org/) -->

<svg
   width="173.3382mm"
   height="170.99283mm"
   viewBox="0 0 173.33819 170.99283"
   version="1.1"
   id="svg5"
   inkscape:version="1.1.1 (3bf5ae0d25, 2021-09-20, custom)"
   sodipodi:docname="LogoTapiocas.svg"
   xmlns:inkscape="http://www.inkscape.org/namespaces/inkscape"
   xmlns:sodipodi="http://sodipodi.sourceforge.net/DTD/sodipodi-0.dtd"
   xmlns="http://www.w3.org/2000/svg"
   xmlns:svg="http://www.w3.org/2000/svg">
  <sodipodi:namedview
     id="namedview7"
     pagecolor="#ffffff"
     bordercolor="#666666"
     borderopacity="1.0"
     inkscape:pageshadow="2"
     inkscape:pageopacity="0.0"
     inkscape:pagecheckerboard="0"
     inkscape:document-units="mm"
     showgrid="false"
     inkscape:snap-global="false"
     fit-margin-top="0"
     fit-margin-left="0"
     fit-margin-right="0"
     fit-margin-bottom="0"
     inkscape:zoom="1"
     inkscape:cx="481.5"
     inkscape:cy="353.5"
     inkscape:window-width="1716"
     inkscape:window-height="1404"
     inkscape:window-x="1720"
     inkscape:window-y="16"
     inkscape:window-maximized="1"
     inkscape:current-layer="layer1" />
  <defs
     id="defs2" />
  <g
     inkscape:label="Layer 1"
     inkscape:groupmode="layer"
     id="layer1"
     transform="translate(-21.308292,-58.949415)">
    <path
       id="path3398"
       style="fill:#ffffff;stroke-width:0.176777"
       transform="matrix(0.26458333,0,0,0.26458333,21.057566,58.876396)"
       d="m -299.99805,575.39062 c -4.47682,0.13481 -10.45881,0.77251 -23.53711,2.50586 -21.84801,2.89566 -29.1845,3.47807 -50.4414,3.9961 -9.10218,0.22183 -27.59895,0.11573 -33.48047,-0.18946 -13.90598,-0.72155 -22.12717,-1.33028 -49.04688,-3.63085 -20.79368,-1.77704 -25.51013,-2.07849 -32.63671,-2.0918 -2.95816,-0.006 -5.03357,0.0619 -6.51368,0.23828 -1.4801,0.17635 -2.37601,0.45799 -2.95508,0.92773 l -0.4121,0.33399 a 0.25204511,0.25204511 0 0 0 -0.0254,0.36719 l 0.44141,0.47461 c 0.45794,0.49217 1.33442,0.99238 2.55859,1.54492 1.22418,0.55253 2.78986,1.14153 4.58985,1.73047 3.59997,1.17788 8.13248,2.35964 12.69726,3.25 9.8899,1.92903 26.24387,3.91024 42.98633,5.20898 7.56743,0.58702 12.74639,0.81031 22.3711,0.96875 29.76846,0.49002 76.06216,-0.36757 90.27734,-1.67578 3.3747,-0.31057 9.77795,-1.12119 14.6875,-1.86328 6.4081,-0.96861 11.31969,-1.9678 14.70898,-2.99219 1.69465,-0.5122 3.00796,-1.02966 3.94727,-1.5625 0.93931,-0.53284 1.52727,-1.08231 1.6875,-1.7207 0.10689,-0.42588 -0.002,-0.88644 -0.29297,-1.37696 -0.29136,-0.49052 -0.76526,-1.03013 -1.4414,-1.66796 -1.23713,-1.16704 -2.42157,-1.91493 -3.97461,-2.33594 -1.55305,-0.42102 -3.46402,-0.5217 -6.19532,-0.43946 z" />
    <path
       id="path3147"
       style="fill:#ffffff;stroke-width:0.25"
       transform="matrix(0.26458333,0,0,0.26458333,21.057566,58.876396)"
       d="m -303.375,409.81641 c -14.11884,-0.002 -21.37144,0.24837 -24.49023,0.89257 -6.17488,1.27546 -13.91617,5.28754 -19.09961,9.88282 -7.42511,6.58256 -11.93715,15.48639 -13.11524,25.85742 -0.41079,3.61632 -0.17638,9.73934 0.50196,12.69726 2.04224,8.90535 7.67362,15.4019 19.62695,22.75586 2.76676,1.70218 4.91301,3.07243 6.35937,4.05469 0.72318,0.49113 1.27227,0.88535 1.62891,1.16992 0.10505,0.0838 0.15497,0.13298 0.22461,0.19532 -0.0595,0.0348 -0.0824,0.0562 -0.16797,0.0996 -0.3813,0.19325 -1.01521,0.46377 -1.94141,0.82226 -1.85238,0.71698 -4.88078,1.79212 -9.54101,3.40039 -10.23784,3.53313 -13.97238,5.16889 -18.16406,7.97266 -4.08158,2.73012 -6.63323,6.14598 -7.78125,10.44531 -0.78655,2.94559 -0.78563,8.46151 0,11.42578 0.93429,3.5252 2.56194,6.4447 5.06054,9.07031 2.70722,2.84482 5.04336,4.40457 10.83008,7.25 5.24293,2.57805 8.82592,4.89976 11.55469,7.4668 1.04674,0.9847 1.73332,1.72392 2.10351,2.25977 0.37019,0.53584 0.39355,0.79205 0.33399,0.94726 -0.005,0.0132 1.5e-4,0.002 -0.004,0.0117 -0.0639,0.0135 -0.34469,0.0437 -0.97461,0.002 -1.32044,-0.0874 -4.05173,-0.39677 -9.64648,-1.02539 -6.75582,-0.75907 -10.54226,-1.15888 -12.86914,-1.26562 -2.32688,-0.10675 -3.27007,0.0995 -4.13086,0.54297 -0.55018,0.28342 -1.22196,0.9128 -1.93164,1.66211 -0.70968,0.7493 -1.40952,1.60009 -1.84375,2.30273 -1.74285,2.82013 -2.98606,8.8784 -2.58789,12.45899 0.26292,2.36439 1.26198,4.25746 2.99218,5.59374 1.7302,1.33629 4.15675,2.12226 7.27735,2.42188 6.89476,0.66199 21.91642,-0.30259 29.88086,-1.90625 6.03326,-1.21482 14.74004,-4.51158 21,-7.94141 6.32819,-3.46722 10.6256,-6.67322 14.92968,-11.15039 2.18735,-2.27528 3.03503,-3.37051 3.80079,-4.91992 0.86808,-1.7565 0.99822,-2.2894 0.99804,-4.13086 -2.4e-4,-2.45551 -0.67455,-4.15268 -2.71875,-6.91015 -1.67939,-2.26538 -6.54647,-6.94043 -10.70703,-10.33008 -7.83123,-6.38019 -12.60235,-10.32543 -13.8457,-11.44532 l -1.11914,-1.00976 0.33984,-0.64258 c 0.51325,-0.97127 2.02988,-1.84707 3.81445,-2.03125 1.54301,-0.15925 4.55752,0.53183 8.49219,2.07031 5.39904,2.11107 9.81095,2.86151 13.36133,2.16211 3.55038,-0.6994 6.19774,-2.89063 7.94141,-6.46679 1.75811,-3.60577 3.4783,-11.78208 3.33984,-15.85938 -0.01,-0.29268 -0.0625,-0.56528 -0.23047,-0.79687 -0.16792,-0.2316 -0.43336,-0.36411 -0.69922,-0.42383 -0.60097,-0.13498 -2.32842,-0.3336 -4.93359,-0.59961 -2.60517,-0.26601 -6.02898,-0.58465 -9.8125,-0.91016 -7.1074,-0.61146 -10.39242,-0.9493 -12.05664,-1.18945 0.0806,-0.0208 0.11025,-0.0345 0.19922,-0.0566 1.94432,-0.48361 5.88634,-1.27647 12.85156,-2.63477 2.5649,-0.50018 4.91133,-0.97212 6.62891,-1.32812 0.85878,-0.178 1.56042,-0.32722 2.05468,-0.4375 0.24713,-0.0551 0.44304,-0.0994 0.58399,-0.13477 0.0705,-0.0177 0.12537,-0.0324 0.17383,-0.0469 0.0242,-0.007 0.0467,-0.0149 0.0742,-0.0254 0.0138,-0.005 0.0277,-0.012 0.0508,-0.0234 0.0115,-0.006 0.0262,-0.0116 0.0449,-0.0234 0.0187,-0.0118 0.0775,-0.0619 0.0781,-0.0625 0.1429,-0.14291 0.11242,-0.17856 0.12305,-0.2168 0.0106,-0.0382 0.0163,-0.0685 0.0215,-0.0996 0.0104,-0.0623 0.0173,-0.13037 0.0254,-0.21485 0.0163,-0.16895 0.0327,-0.39837 0.0488,-0.68555 0.0323,-0.57434 0.0646,-1.37796 0.0977,-2.3457 0.0662,-1.93547 0.13228,-4.52266 0.18555,-7.19336 0.10652,-5.3414 0.16745,-10.97108 0.082,-12.50195 -0.1091,-1.95527 -0.23794,-3.27244 -0.44727,-4.18164 -0.10466,-0.4546 -0.2284,-0.81048 -0.40234,-1.09766 -0.17394,-0.28718 -0.41569,-0.50744 -0.69922,-0.61523 -0.3143,-0.1195 -0.76473,-0.19456 -1.38672,-0.28125 -0.62199,-0.0867 -1.391,-0.17029 -2.22656,-0.24219 -1.67113,-0.1438 -3.60573,-0.24559 -5.14258,-0.24609 -4.11126,-0.001 -7.78704,-0.56933 -10.64062,-1.56055 -2.85359,-0.99122 -4.86146,-2.40916 -5.7168,-4.02148 -0.3311,-0.62414 -0.40421,-0.99537 -0.36524,-1.1543 0.039,-0.15893 0.19172,-0.32017 0.71094,-0.53711 0.12785,-0.0534 0.76591,-0.23122 1.62305,-0.42969 0.85714,-0.19846 1.974,-0.4378 3.21875,-0.6914 2.4895,-0.50721 5.49573,-1.07139 7.99219,-1.48438 12.81177,-2.11944 21.15551,-7.0356 26.02734,-15.41797 1.57455,-2.70918 2.38445,-5.21893 2.39062,-7.45898 0.006,-2.24005 -0.81464,-4.20636 -2.43359,-5.72071 -1.77871,-1.66376 -3.53917,-2.6464 -7.39844,-3.1582 -3.85927,-0.5118 -9.86754,-0.60787 -20.4082,-0.60937 z" />
    <path
       id="path2896"
       style="fill:#ffffff;stroke-width:0.353553"
       transform="matrix(0.26458333,0,0,0.26458333,21.057566,58.876396)"
       d="m -411.59766,406.42969 c -3.96783,0.0272 -7.85989,0.30124 -10.32617,0.83398 -14.97203,3.23409 -29.02875,12.88581 -34.01758,23.45703 -0.56525,1.19776 -0.8706,1.86511 -1.01757,2.86133 -0.14698,0.99622 -0.13941,2.29104 -0.125,4.82617 0.058,10.19254 2.36752,17.2512 8.61523,26.34375 5.14694,7.49057 12.09709,15.26583 17.17969,19.19727 1.60363,1.24041 3.49167,2.81611 4.14453,3.45117 v -0.002 l 0.83984,0.8164 -0.51953,0.14258 c -0.0842,0.0231 -0.37396,0.0671 -0.79687,0.10938 -0.42292,0.0423 -0.99388,0.0891 -1.70703,0.13672 -1.42632,0.0952 -3.42212,0.19887 -5.9668,0.3125 -5.08936,0.22725 -12.37133,0.49022 -21.68164,0.77929 -5.83713,0.18124 -9.43181,0.3611 -11.96094,0.70313 -2.52913,0.34202 -4.00584,0.85672 -5.52148,1.68164 -2.26255,1.23143 -3.75177,3.03081 -4.62891,6.1289 -0.87714,3.0981 -1.18214,7.49956 -1.18164,14.08008 9.8e-4,9.57254 0.63018,33.23873 1.07812,40.47852 0.38542,6.22923 0.92761,10.2468 2.01563,12.96289 1.08802,2.71608 2.7727,4.11393 5.26758,4.95898 3.18869,1.08006 8.63558,1.74988 13.07617,1.625 2.10369,-0.0592 3.17404,-0.0861 4.00781,-0.27734 0.83378,-0.19126 1.38377,-0.5496 2.35547,-1.19531 1.10666,-0.73542 3.44376,-2.5591 5.24609,-4.08789 4.52368,-3.83713 7.33283,-6.1021 9.44336,-7.44922 2.11053,-1.34713 3.50077,-1.78132 5.29492,-1.99219 1.9779,-0.23246 3.76271,0.0752 5.9004,1.1875 2.13768,1.11232 4.61645,3.04183 7.88867,6.03906 6.23105,5.70743 8.85761,7.51927 11.98437,8.18946 2.47056,0.52953 7.96127,0.13921 10.82617,-0.74024 3.3315,-1.0227 6.38781,-2.64808 7.76172,-4.21289 0.4701,-0.5354 0.77116,-0.94812 0.93555,-1.48242 0.16439,-0.5343 0.19046,-1.14936 0.18945,-2.12305 -0.004,-3.81484 -1.87565,-10.42137 -8.62109,-30.75976 -5.31231,-16.01735 -7.56067,-21.73138 -12.26172,-31.15625 -1.41615,-2.83916 -2.5649,-5.28678 -3.35742,-7.13477 -0.39626,-0.92399 -0.70423,-1.69913 -0.91016,-2.29297 -0.19447,-0.5608 -0.27496,-0.94346 -0.28515,-1.09765 0.0504,-0.0415 0.14478,-0.10606 0.28906,-0.1836 0.30181,-0.16219 0.7932,-0.37674 1.48437,-0.64453 1.38234,-0.53558 3.56655,-1.28645 6.73633,-2.32031 13.4131,-4.37489 19.38503,-7.59648 25.69531,-13.87696 10.75066,-10.69987 15.3095,-26.0323 11.55274,-38.99609 -1.95613,-6.75017 -5.20309,-11.75659 -11.4336,-17.6543 -6.72968,-6.3702 -12.27506,-9.03215 -22.76367,-10.93359 -2.72851,-0.49464 -6.75673,-0.71662 -10.72461,-0.68945 z m -1.09179,32.19336 c 2.44966,-0.25665 5.16466,0.73244 7.63867,2.91015 1.45173,1.27787 2.22732,2.314 2.44531,3.28907 0.218,0.97506 -0.0815,1.95866 -0.94531,3.24023 -0.87958,1.30502 -2.46257,3.35112 -3.90625,5.10742 -0.72184,0.87815 -1.40933,1.68376 -1.95703,2.29102 -0.27385,0.30363 -0.51356,0.55893 -0.70117,0.74414 -0.18762,0.1852 -0.34971,0.30746 -0.35547,0.31054 -0.24635,0.13184 -0.43396,0.2126 -0.56836,0.24219 -0.1344,0.0296 -0.20925,0.0237 -0.32617,-0.0293 -0.23385,-0.10603 -0.62006,-0.49723 -1.25391,-1.28711 -3.6953,-4.60496 -5.11488,-7.70686 -5.12695,-11.0625 -0.005,-1.35395 0.20304,-2.38972 0.63671,-3.19727 0.43368,-0.80754 1.09448,-1.405 2.06836,-1.88281 0.74652,-0.36626 1.53516,-0.59024 2.35157,-0.67578 z m -28.61133,86.79101 c 0.32137,-0.0371 0.55754,0.01 0.99805,0.30469 0.4405,0.29478 1.04609,0.84688 1.95898,1.75977 2.00808,2.00808 4.24893,5.01456 6.51953,8.76562 l 0.50391,0.83398 h -6.38086 -6.58008 l 0.14453,-0.95312 c 0.11199,-0.7374 0.37869,-2.67748 0.5918,-4.32422 0.21019,-1.62414 0.65639,-3.78387 0.96484,-4.71289 0.24514,-0.73834 0.4327,-1.16045 0.60352,-1.36914 0.17081,-0.20869 0.31082,-0.26258 0.67578,-0.30469 z" />
    <path
       id="path2645"
       style="fill:#ffffff;stroke-width:0.25"
       transform="matrix(0.26458333,0,0,0.26458333,21.057566,58.876396)"
       d="m -489.55859,406.36328 c -2.45246,0.001 -5.10954,0.0933 -6.97461,0.28125 -1.68886,0.17016 -5.55596,0.6163 -9.01563,1.03125 -1.72983,0.20747 -3.35847,0.40661 -4.55859,0.5586 -0.60006,0.076 -1.09222,0.14174 -1.43946,0.18945 -0.17361,0.0238 -0.31033,0.0432 -0.4082,0.0586 -0.0489,0.008 -0.0883,0.0132 -0.12109,0.0195 -0.0164,0.003 -0.0297,0.007 -0.0488,0.0117 -0.01,0.002 -0.0205,0.005 -0.0391,0.0117 -0.009,0.003 -0.0211,0.009 -0.0391,0.0176 -0.018,0.009 -0.0876,0.0622 -0.0879,0.0625 -9.8e-4,9.7e-4 -0.0755,0.10852 -0.0859,0.14062 -0.0104,0.0321 -0.0134,0.0529 -0.0156,0.0703 -0.004,0.0349 -0.004,0.0569 -0.004,0.0781 10e-4,0.0425 0.006,0.08 0.0117,0.12695 0.0112,0.0938 0.0294,0.21693 0.0566,0.37305 0.0545,0.31224 0.14176,0.75643 0.25781,1.32422 0.23209,1.13559 0.58068,2.7599 1.01953,4.75195 0.87771,3.98411 2.11436,9.44182 3.48633,15.40625 2.74394,11.92887 6.03076,25.88086 8.07812,34.10743 2.37332,9.53628 4.32645,14.65495 6.99219,18.20117 1.98057,2.63474 4.20112,3.72119 8.39258,4.13672 4.23354,0.41971 10.29998,-0.20015 17.66211,-1.78516 2.61738,-0.56351 5.0156,-1.07911 5.32226,-1.14453 0.26399,-0.0563 0.52741,-0.1803 0.66992,-0.42188 0.14251,-0.24158 0.16016,-0.51102 0.16016,-0.86132 0,-0.3792 -0.0987,-1.26833 -0.27344,-2.66797 -0.17476,-1.39965 -0.42627,-3.27257 -0.73437,-5.48633 -0.61621,-4.42753 -1.45809,-10.21412 -2.36328,-16.26563 -1.81039,-12.10301 -3.87281,-25.26346 -4.88086,-30.76757 -1.08525,-5.92561 -2.02892,-9.78876 -3.29883,-12.58594 -1.26991,-2.79719 -2.88414,-4.5186 -5.21875,-6.08008 -1.97565,-1.3214 -4.02232,-2.1112 -6.75781,-2.61328 -1.07322,-0.197 -3.29168,-0.28046 -5.74414,-0.2793 z" />
    <path
       id="path2394"
       style="fill:#ffffff;stroke-width:0.5"
       transform="matrix(0.26458333,0,0,0.26458333,21.057566,58.876396)"
       d="m -506.9082,304.59961 c -13.65055,-0.008 -20.86696,-7.8e-4 -24.68164,0.11328 -1.90735,0.057 -2.93955,0.12695 -3.63477,0.28125 -0.34761,0.0771 -0.65894,0.14573 -0.9707,0.48438 -0.31176,0.33864 -0.31627,0.91729 -0.24805,1.15234 0.01,0.0338 0.13014,0.5121 0.29102,1.18555 0.16088,0.67344 0.37797,1.59149 0.63476,2.68945 0.51359,2.19592 1.18662,5.10655 1.89649,8.19922 2.72898,11.8894 4.29487,18.29302 6.34961,22.43554 2.05473,4.14253 4.68675,5.90859 8.98828,8.14649 3.92801,2.04358 5.79919,3.18268 7.35156,6.07422 1.55237,2.89153 2.75345,7.71164 4.80859,16.83984 3.16536,14.05941 5.6104,19.97258 10.21094,24.12891 2.28181,2.06146 6.61993,4.26707 9.80078,5.01562 5.07503,1.19433 10.30364,0.11246 13.89649,-2.96289 2.6728,-2.28782 4.1067,-5.37843 4.22656,-10.51367 0.11986,-5.13524 -0.95276,-12.42112 -3.14453,-23.66797 -0.60853,-3.12263 -1.162,-6.09827 -1.5625,-8.37305 -0.20025,-1.13738 -0.36163,-2.10131 -0.47266,-2.81445 -0.11102,-0.71314 -0.16406,-1.28878 -0.16406,-1.22851 0,-0.45525 0.13704,-0.78466 1.05078,-1.44336 0.91374,-0.6587 2.54975,-1.47562 5.08008,-2.53711 4.51116,-1.89247 7.45041,-4.11214 8.14258,-6.85742 0.17955,-0.71215 0.14374,-1.57227 0.0605,-2.75586 -0.0832,-1.1836 -0.25497,-2.61006 -0.5,-4.0918 -0.85707,-5.1829 -1.48694,-10.43048 -2.2832,-18.99805 -0.132,-1.42038 -0.32753,-2.82699 -0.53906,-3.9707 -0.10577,-0.57186 -0.21563,-1.07694 -0.32813,-1.49609 -0.1125,-0.41916 -0.19026,-0.72093 -0.40234,-1.06055 -0.57218,-0.91619 -1.46352,-1.71692 -2.89063,-2.24805 -1.42711,-0.53113 -3.39562,-0.87057 -6.41797,-1.11914 -6.04469,-0.49713 -16.32209,-0.59682 -34.54882,-0.60742 z" />
    <path
       id="path1952"
       style="fill:#ffffff;stroke-width:0.5"
       transform="matrix(0.26458333,0,0,0.26458333,21.057566,58.876396)"
       d="m -417.74219,300.76172 c -4.7907,-0.0583 -7.4674,-0.0268 -9.37304,0.55469 -1.90565,0.58143 -2.92553,1.7796 -4.13672,3.68945 -0.80811,1.27425 -1.21347,1.71022 -2.02344,5.0625 -0.80998,3.35228 -2.0976,9.7386 -4.86719,23.3125 -3.55954,17.44548 -6.2329,30.96163 -8.01758,40.5332 -0.89234,4.78579 -1.56196,8.58602 -2.00976,11.40039 -0.44781,2.81438 -0.67774,4.60611 -0.67774,5.53711 0,1.38497 0.0368,2.26791 0.2793,3.05078 0.24255,0.78288 0.68743,1.39069 1.36133,2.15821 1.18685,1.35175 2.55794,2.22685 4.83789,2.69531 2.27995,0.46845 5.48905,0.5918 10.61914,0.5918 5.55476,0 8.50761,-0.0247 10.7168,-1.02344 2.20918,-0.99877 3.43308,-2.91819 5.48632,-6.36133 2.2304,-3.7402 6.00767,-7.13921 8.83204,-8.10156 1.15711,-0.39428 3.65443,-0.76367 5.32031,-0.76367 2.33396,0 3.90073,0.30059 5.75391,1.44531 1.85317,1.14471 3.99194,3.18206 7.22656,6.65234 2.92751,3.14081 5.02275,5.14385 7.03906,6.48047 2.01631,1.33662 3.9497,1.98096 6.41602,2.39649 3.45335,0.5818 9.88067,0.59476 13.73828,0.0371 3.667,-0.53011 5.77534,-2.04535 7.29882,-5.25586 0.64673,-1.36288 0.92172,-2.74688 0.69532,-4.97266 -0.22641,-2.22578 -0.91957,-5.34203 -2.17969,-10.42969 -3.51244,-14.1813 -8.25573,-31.40408 -12.4082,-45.48828 -2.07624,-7.0421 -4.00449,-13.29865 -5.5586,-18.00195 -0.77705,-2.35166 -1.46137,-4.3148 -2.02539,-5.79883 -0.56401,-1.48404 -0.96533,-2.44587 -1.35156,-2.98828 -1.70175,-2.38989 -4.4555,-3.76485 -8.77344,-4.51758 -4.77264,-0.832 -20.70126,-1.7545 -32.21875,-1.89453 z m 15.27149,41.08594 c 0.43587,0.23841 0.76258,1.03154 0.65429,0.86914 0.42345,0.86204 0.99538,2.42487 1.85938,4.99414 0.57673,1.71501 1.11889,3.47175 1.52344,4.91015 0.40454,1.4384 0.67067,2.62311 0.69726,2.94922 0.0555,0.68053 0.003,1.0521 -0.0254,1.11328 -0.0143,0.0306 0.009,0.008 -0.0176,0.0215 -0.0265,0.0138 -0.12085,0.044 -0.28711,0.0625 -0.13102,0.0146 -0.71098,-0.084 -1.375,-0.33399 -0.66401,-0.24994 -1.45306,-0.62121 -2.22656,-1.04297 -0.7735,-0.42175 -1.53365,-0.89454 -2.14648,-1.34179 -0.61284,-0.44725 -1.08107,-0.89585 -1.23633,-1.13281 -0.33369,-0.50927 -0.543,-1.51223 -0.53516,-2.70313 0.008,-1.1909 0.20723,-2.565 0.53711,-3.84961 0.32989,-1.28461 0.79462,-2.4835 1.29688,-3.31836 0.50225,-0.83486 1.02062,-1.19726 1.28125,-1.19726 z" />
    <path
       id="path1701"
       style="fill:#ffffff;stroke-width:0.5"
       transform="matrix(0.26458333,0,0,0.26458333,21.057566,58.876396)"
       d="m -316.32617,301.21094 c -4.13993,-0.12483 -7.27052,-0.13888 -8.77149,0.0195 -2.19937,0.23212 -3.78129,0.64029 -4.96679,1.4668 -1.18551,0.8265 -1.90548,2.05536 -2.40235,3.72851 -1.14589,3.85863 -2.04281,14.09339 -3.80273,42.04102 -0.97516,15.4855 -1.56825,26.33672 -1.81055,33.58008 -0.12115,3.62167 -0.15551,6.34063 -0.10547,8.29492 0.05,1.95428 0.14588,3.09639 0.4336,3.79101 0.5943,1.43478 1.83204,2.57204 3.73633,3.47461 1.90428,0.90257 4.4939,1.59713 7.92968,2.17969 2.95333,0.50076 6.62316,0.67293 9.85156,0.56445 1.61421,-0.0542 3.11533,-0.1781 4.36719,-0.37109 1.25187,-0.193 2.2404,-0.43614 2.91016,-0.81836 1.60832,-0.91784 2.77509,-2.33694 3.69531,-4.85547 0.92023,-2.51853 1.64577,-6.16155 2.48438,-11.73047 1.20728,-8.01719 1.96727,-12.76716 2.53906,-15.48437 0.2859,-1.35861 0.53137,-2.21231 0.73242,-2.67188 0.10053,-0.22978 0.19156,-0.35608 0.23242,-0.39648 0.0409,-0.0404 -0.001,-0.01 -0.0137,-0.01 -0.0624,0 0.27168,0.0458 0.66406,0.15039 0.39238,0.10457 0.9162,0.25868 1.5293,0.44922 1.22621,0.38108 2.80987,0.90818 4.44727,1.48828 5.70366,2.02072 6.40634,2.14644 11.89648,2.14844 2.6279,0.001 4.13548,-0.0245 5.31836,-0.21289 1.18287,-0.18842 2.01717,-0.55173 3.17187,-1.16016 4.62118,-2.43494 9.7731,-8.76393 13.97266,-16.04101 4.19956,-7.27708 7.40784,-15.48641 7.87891,-21.76953 0.36021,-4.80474 -0.90744,-8.94526 -4.23438,-13.95313 -4.61589,-6.94807 -9.19567,-9.69763 -18.04101,-10.83398 -9.98892,-1.28326 -31.22265,-2.6939 -43.64258,-3.06836 z m 24.86523,26.99023 c 0.4355,0.0135 0.75205,0.13877 0.99024,0.37695 0.17406,0.17407 0.43695,0.63346 0.66015,1.26172 0.22321,0.62827 0.4267,1.42522 0.58789,2.30469 0.32239,1.75894 0.4796,3.85236 0.36524,5.64844 -0.0835,1.31088 -0.19436,2.1174 -0.4043,2.71289 -0.20993,0.59549 -0.51588,1.01962 -1.09961,1.62891 -0.68432,0.71426 -2.48777,1.84321 -3.80469,2.33593 -1.35511,0.50702 -3.59839,1.09997 -4.85937,1.28907 -0.97123,0.14564 -1.41536,0.15239 -1.57031,0.15039 0.009,-0.0381 0.003,-0.0215 0.0176,-0.0684 0.0979,-0.31701 0.32491,-1.21675 0.64257,-2.50977 0.31766,-1.29302 0.71539,-2.94661 1.11719,-4.64844 0.39822,-1.6867 0.86744,-3.36571 1.30078,-4.70312 0.21667,-0.66871 0.42529,-1.2522 0.60742,-1.70313 0.18214,-0.45092 0.35786,-0.78468 0.42383,-0.87304 1.51912,-2.0347 3.71879,-3.24368 5.02539,-3.20313 z" />
    <path
       id="path1450"
       style="fill:#ffffff;stroke-width:0.5"
       transform="matrix(0.26458333,0,0,0.26458333,21.057566,58.876396)"
       d="m -517.0625,192.60352 -11.47266,0.14843 c -8.47128,0.10893 -15.48324,0.354 -20.70898,0.71289 -2.61287,0.17945 -4.77818,0.38736 -6.46484,0.62305 -1.68667,0.2357 -2.87274,0.47979 -3.64454,0.81836 -0.91805,0.40273 -1.55129,0.73246 -2.01367,1.26563 -0.46237,0.53316 -0.65846,1.18755 -0.82031,2.04101 -0.59757,3.15117 0.71801,8.40005 5.77344,24.77734 5.47041,17.72166 9.36642,31.30183 14.01172,48.84571 0.97874,3.69643 1.98483,7.28433 2.81836,10.09179 0.41676,1.40374 0.78867,2.6118 1.0957,3.54493 0.30703,0.93312 0.52686,1.55754 0.7207,1.9375 0.63344,1.24163 2.11506,3.21698 3.41016,4.60156 l 2.27148,2.42969 a 0.64699938,0.64699938 0 0 0 0.47266,0.20507 h 33.25976 33.25782 a 0.64699938,0.64699938 0 0 0 0.64648,-0.66406 l -0.29101,-11.31445 c -0.0803,-3.11771 -0.19998,-5.99551 -0.32813,-8.12891 -0.0641,-1.06669 -0.12964,-1.94559 -0.19531,-2.58398 -0.0328,-0.3192 -0.0645,-0.57582 -0.0996,-0.7793 -0.0176,-0.10174 -0.0353,-0.19022 -0.0606,-0.2793 -0.0252,-0.0891 0.018,-0.16009 -0.21679,-0.38671 -0.2302,-0.22218 -0.28577,-0.17575 -0.37305,-0.20118 -0.0873,-0.0254 -0.17614,-0.044 -0.28125,-0.0644 -0.21023,-0.0408 -0.47966,-0.0821 -0.81641,-0.12695 -0.67349,-0.0898 -1.60542,-0.19204 -2.73633,-0.30078 -2.2618,-0.21749 -5.317,-0.46138 -8.62695,-0.68164 -9.08779,-0.60476 -14.3218,-1.08348 -17.50781,-1.85547 -3.18602,-0.77199 -4.2699,-1.72053 -5.47852,-3.54688 -0.85312,-1.28915 -1.81189,-4.29755 -3.02929,-10.625 -1.21741,-6.32745 -2.73087,-15.98578 -4.8711,-30.70117 -1.50004,-10.31371 -2.45934,-16.48793 -3.27539,-20.43359 -0.81605,-3.94566 -1.5066,-5.71467 -2.46875,-7.08008 l -1.41992,-2.01563 a 0.64699938,0.64699938 0 0 0 -0.53711,-0.27343 z" />
    <path
       id="path1199"
       style="fill:#ffffff;stroke-width:0.5"
       transform="matrix(0.26458333,0,0,0.26458333,21.057566,58.876396)"
       d="m -377.48242,187.57812 c -7.24824,0.0295 -16.89579,0.42666 -25.53906,1.02149 -8.64328,0.59483 -16.23801,1.37258 -19.54102,2.21875 -3.82554,0.98003 -7.05644,2.75374 -8.54883,4.84961 -1.23424,1.73333 -2.48407,5.32213 -4.62305,13.70117 -2.13897,8.37904 -5.13388,21.53299 -9.70117,42.27539 -3.27418,14.86979 -5.14439,24.02516 -5.92578,29.84375 -0.39069,2.9093 -0.51129,4.98569 -0.38867,6.54492 0.12262,1.55924 0.50263,2.62249 1.11914,3.40625 1.4208,1.80627 4.52792,3.24928 9.2832,4.53125 6.9413,1.8713 15.24424,0.63338 20.70118,-3.12109 0.64915,-0.44663 1.85605,-1.46411 3.35351,-2.78711 1.49746,-1.323 3.26261,-2.93888 4.9375,-4.53516 4.53605,-4.32312 6.82493,-6.11294 9.15039,-7.20117 3.00886,-1.40801 3.26441,-1.4425 7.83008,-1.24219 3.97439,0.17438 5.13951,0.41374 7.15039,1.46094 3.02561,1.57563 5.77572,4.20546 9.26367,8.92188 2.40069,3.2462 4.33327,5.18038 7.60547,6.28125 3.2722,1.10086 7.81523,1.40032 15.59375,1.59375 6.07292,0.15101 9.62806,0.1555 11.98438,-0.19336 2.35631,-0.34886 3.55861,-1.12745 4.61328,-2.38086 0.83367,-0.99097 1.3227,-1.92702 1.32422,-3.50781 0.002,-1.5808 -0.40687,-3.83022 -1.20899,-7.79493 -2.8774,-14.22243 -17.71016,-75.66464 -20.52148,-84.98046 -0.78943,-2.61589 -1.66942,-4.50199 -2.87696,-5.85547 -1.20753,-1.35349 -2.74027,-2.13778 -4.69335,-2.55664 -1.78578,-0.38299 -5.50957,-0.51379 -10.3418,-0.49415 z M -395.5,230.96875 c 0.13996,-0.0282 0.26746,-0.0124 0.40234,0.0352 0.36004,0.12699 0.85374,0.6247 1.34571,1.59179 1.35679,2.66713 2.31595,5.90603 2.73437,8.82813 0.41843,2.92209 0.25962,5.54346 -0.42187,6.86133 -0.33608,0.6499 -1.50872,1.90576 -2.45508,2.54882 -1.18459,0.80496 -1.89656,1.12379 -2.48438,1.08985 -0.58781,-0.0339 -1.24317,-0.4315 -2.30664,-1.36524 -1.72813,-1.51732 -2.61853,-2.72415 -2.89843,-4.1914 -0.27991,-1.46726 0.0571,-3.28998 0.99414,-5.99414 1.23024,-3.55012 2.33236,-6.09577 3.30078,-7.63282 0.4842,-0.76852 0.93797,-1.28072 1.31054,-1.54101 0.18629,-0.13014 0.33856,-0.20228 0.47852,-0.23047 z" />
    <path
       id="path911"
       style="fill:#ffffff;stroke-width:0.707107"
       transform="matrix(0.26458333,0,0,0.26458333,21.057566,58.876396)"
       d="m -371.58398,158.38281 c -44.92701,0.0111 -62.7218,0.70153 -155.60547,6.03516 -12.35069,0.70921 -23.67267,1.432 -31.96875,2.02539 -4.14805,0.29669 -7.54071,0.56091 -9.92969,0.77539 -1.19449,0.10724 -2.13703,0.20007 -2.80664,0.28125 -0.33481,0.0406 -0.59918,0.0791 -0.80469,0.11523 -0.10275,0.0181 -0.1892,0.034 -0.27539,0.0566 -0.0862,0.0226 -0.13208,-0.0227 -0.37891,0.17968 -0.29876,0.245 -0.47761,0.5341 -0.6875,0.90235 -0.20988,0.36824 -0.42139,0.81203 -0.63867,1.3125 -0.43454,1.00092 -0.88394,2.22914 -1.27929,3.46875 -0.39536,1.2396 -0.73707,2.48721 -0.95313,3.52734 -0.10803,0.52007 -0.18387,0.98587 -0.21875,1.39062 -0.0349,0.40476 -0.0653,0.72113 0.0859,1.11524 0.24187,0.63033 0.7196,0.98339 1.32617,1.41602 0.60657,0.43262 1.35644,0.85312 2.14063,1.18359 2.13071,0.89792 5.74622,1.09399 13.48046,0.6582 7.73425,-0.43579 19.57444,-1.55138 37.97461,-3.48437 16.52625,-1.73614 34.83363,-3.57603 40.64844,-4.08789 12.25484,-1.07876 48.70723,-1.16763 88.02344,-0.5625 39.3162,0.60513 81.56749,1.89631 105.60937,3.54492 5.80475,0.39805 9.13471,0.67795 10.87305,0.99219 0.76135,0.13762 1.08501,0.28582 1.24219,0.36914 -0.1333,0.0914 -0.28572,0.19373 -0.51563,0.33007 -0.56726,0.33641 -1.39426,0.78358 -2.40625,1.30274 -2.02397,1.03832 -4.79301,2.36581 -7.80468,3.72265 -13.4179,6.04516 -18.26549,8.78307 -21.99024,12.50782 -5.28496,5.28496 -8.00586,13.05626 -8.00586,22.5625 0,7.12756 0.96364,12.42964 3.68164,17.04883 2.718,4.61918 7.13956,8.49647 13.92383,12.91992 5.54796,3.61735 8.84366,6.07354 10.4668,7.98047 0.81156,0.95346 1.19878,1.74319 1.32226,2.48437 0.12349,0.74119 -0.005,1.48017 -0.37695,2.37891 -0.7231,1.74571 -1.62903,2.51102 -3.55078,2.68554 -1.92175,0.17453 -4.88602,-0.42751 -9.19922,-1.85742 -2.99659,-0.99342 -5.81415,-1.34749 -9.44922,-1.19922 l -5.06055,0.20508 a 0.72679754,0.72679754 0 0 0 -0.62304,0.4082 l -4.15039,8.48633 c -1.15009,2.35111 -2.23049,4.80408 -3.04688,6.875 -0.81658,2.07142 -1.37382,3.67737 -1.48242,4.67774 -0.41492,3.82196 1.49376,7.96025 4.56445,9.41797 0.61507,0.29198 1.63879,0.51317 3.28321,0.85156 1.64441,0.33838 3.8137,0.73431 6.33984,1.16211 5.05229,0.8556 11.5289,1.83415 18.0293,2.69726 4.59889,0.61064 16.4927,-0.11981 20.79296,-1.29101 13.21448,-3.59903 25.6608,-14.52591 32.82813,-28.71485 4.73335,-9.37044 4.9464,-18.66957 0.59375,-27.47656 -1.72193,-3.48409 -3.32808,-5.86973 -6.28711,-8.2207 -2.95902,-2.35098 -7.22924,-4.68121 -14.39453,-8.2793 -3.15168,-1.58263 -6.04782,-3.12078 -8.16406,-4.32031 -1.05813,-0.59977 -1.92207,-1.11616 -2.51563,-1.50195 -0.27073,-0.17597 -0.46738,-0.31666 -0.60937,-0.42579 0.0485,-0.0601 0.0879,-0.11894 0.20898,-0.21289 0.34184,-0.26529 0.95595,-0.58413 1.70899,-0.85937 1.50606,-0.55049 3.58286,-0.95644 5.42968,-0.94727 1.83222,0.009 4.91172,0.72979 7.34375,1.76172 7.45041,3.1613 10.32439,4.10903 12.48633,3.56641 1.57685,-0.39576 3.27006,-1.59827 4.88867,-3.17969 1.61862,-1.58141 3.1322,-3.55525 4.1543,-5.57226 2.31354,-4.56556 4.57903,-13.25409 4.58984,-17.75977 0.004,-1.73387 0.20249,-4.36481 0.42383,-5.70312 l 0.33203,-1.9961 10.11524,-0.45117 c 2.95433,-0.13192 5.89023,-0.33132 8.25,-0.54492 2.35976,-0.21361 4.03983,-0.4012 4.875,-0.66016 4.59129,-1.42363 6.75978,-7.44574 4.69531,-12.38672 -0.48793,-1.16778 -0.90513,-2.15353 -1.72852,-2.96093 -0.82339,-0.80741 -1.98816,-1.3491 -3.79101,-1.75782 -3.6057,-0.81743 -9.95559,-1.19586 -22.52734,-1.94336 -12.53986,-0.74559 -34.27987,-2.16297 -48.30274,-3.14843 -46.25635,-3.25073 -61.833,-3.88497 -95.20312,-3.87696 z" />
    <path
       id="path697"
       style="fill:#ffffff;stroke-width:1.41421"
       transform="matrix(0.26458333,0,0,0.26458333,21.057566,58.876396)"
       d="m -317.01172,64.943359 c -15.26774,-0.02497 -27.06748,4.527008 -37.32812,13.796875 -5.83027,5.267296 -16.9829,19.148733 -26.69727,32.199216 -4.85718,6.52525 -9.30778,12.80299 -12.44336,17.62305 -1.56779,2.41003 -2.80274,4.44517 -3.62305,6.03125 -0.41015,0.79304 -0.71901,1.45934 -0.92382,2.11523 -0.10241,0.32795 -0.18796,0.65077 -0.20313,1.0879 -0.0152,0.43712 0.029,1.15591 0.66797,1.79492 0.52194,0.52196 0.66304,0.46687 0.86328,0.55078 0.20024,0.0839 0.39523,0.15175 0.61524,0.22265 0.44,0.14181 0.97549,0.28994 1.60742,0.45118 1.26385,0.32246 2.89767,0.68773 4.63672,1.02929 9.97972,1.96011 16.57482,2.4787 22.43554,-0.69531 5.86073,-3.17401 10.41378,-9.54869 17.28711,-20.59766 8.96797,-14.41612 14.38295,-21.988191 19.65821,-25.261714 2.63762,-1.636762 5.25648,-2.32257 8.67382,-2.384766 3.41734,-0.0622 7.60762,0.560422 12.99219,1.619141 7.90093,1.553488 13.48453,2.180962 18.17774,1.5625 4.6932,-0.618462 8.39022,-2.592245 12.01562,-5.775391 2.48262,-2.179771 5.01714,-5.26726 6.88672,-8.054688 0.93479,-1.393713 1.69572,-2.694632 2.19727,-3.859374 0.25077,-0.582372 0.4457,-1.120388 0.5371,-1.742188 0.0914,-0.6218 0.15445,-1.577976 -0.68945,-2.421875 -0.56344,-0.563437 -0.60188,-0.426015 -0.73633,-0.484375 -0.13445,-0.05836 -0.25217,-0.100603 -0.38672,-0.148438 -0.26909,-0.09567 -0.59385,-0.200909 -0.99609,-0.324218 -0.80448,-0.24662 -1.90487,-0.562556 -3.23828,-0.931641 -2.66682,-0.738169 -6.26223,-1.686764 -10.16211,-2.673828 -12.24682,-3.09968 -22.66355,-4.713536 -31.82422,-4.728516 z" />
    <path
       style="fill:#000000;stroke-width:0.264583"
       d="M 102.0531,229.74552 C 65.351687,227.26183 33.981597,201.8555 24.385917,166.84364 c -3.28196,-11.97492 -3.95495,-24.51202 -1.94243,-36.18561 3.10695,-18.02173 11.10409,-33.519804 23.90008,-46.317189 3.9915,-3.991936 6.73145,-6.329584 10.98514,-9.372224 11.68097,-8.355328 24.63371,-13.402884 39.829592,-15.521202 4.747941,-0.661866 17.074151,-0.664556 21.695841,-0.0047 17.03631,2.432209 30.24446,7.974059 43.52396,18.2617 3.68731,2.856568 11.20113,10.399688 14.13707,14.192194 9.023,11.655501 14.67596,24.449831 17.06826,38.630581 1.66692,9.88093 1.35871,21.90655 -0.82048,32.01317 -5.05634,23.45029 -20.58466,44.27271 -41.95154,56.25417 -14.68192,8.23288 -31.87211,12.09376 -48.75831,10.95102 z m 24.1004,-15.44242 c 1.97736,-0.22478 4.41814,-0.5823 5.42396,-0.79449 3.41549,-0.72055 3.95287,-1.19122 2.58683,-2.26575 -0.94976,-0.74707 -2.1541,-0.71258 -9.48932,0.27179 -4.91125,0.65908 -7.37014,0.84348 -12.74382,0.95569 -6.96176,0.14536 -10.26174,-0.0169 -22.762743,-1.11949 -6.75943,-0.59617 -9.69613,-0.62173 -10.02644,-0.0873 -0.22092,0.35746 1.9835,1.19152 4.69739,1.7773 2.83957,0.61291 8.285281,1.26307 13.451234,1.60593 5.561809,0.36914 24.584829,0.14261 28.862909,-0.3437 z m -18.82021,-4.89192 c 1.93444,-1.0001 1.93451,-0.99883 -0.49934,-8.5225 -1.58704,-4.90594 -2.57196,-7.47435 -3.63302,-9.4739 -0.80064,-1.50879 -1.35667,-2.82919 -1.23562,-2.93422 0.12104,-0.10503 1.17258,-0.46308 2.33674,-0.79565 5.21636,-1.49019 8.17412,-4.07309 9.63701,-8.41562 0.83351,-2.47423 0.61561,-5.03971 -0.63302,-7.4532 -0.72471,-1.4008 -3.04173,-3.70597 -4.43431,-4.41165 -2.57707,-1.3059 -6.47583,-1.76884 -9.517595,-1.13012 -3.492437,0.73336 -7.230515,3.15302 -8.512003,5.50983 -0.694735,1.27769 -0.749419,1.57097 -0.637501,3.41906 0.138033,2.27927 0.83371,4.18869 2.278891,6.25482 1.49034,2.1307 3.530656,4.37029 4.740923,5.20397 0.618464,0.42602 1.124479,0.87627 1.124479,1.00054 0,0.12428 -2.589609,0.27265 -5.754687,0.32972 -9.12336,0.16448 -8.68003,-0.40586 -8.43405,10.85034 0.18343,8.39334 0.33764,9.45379 1.50017,10.31607 0.73622,0.54608 3.91594,0.94263 5.125048,0.63917 0.383048,-0.0961 1.531861,-0.94145 2.552917,-1.87847 3.039308,-2.78918 4.313862,-2.76771 7.259568,0.12226 0.91147,0.89423 1.98185,1.67363 2.51354,1.83025 1.19778,0.35283 3.03637,0.1522 4.22186,-0.4607 z M 93.715086,199.11897 c 0.104299,-0.83674 0.326377,-1.61105 0.493506,-1.72069 0.316619,-0.2077 1.585677,1.10623 2.400133,2.485 l 0.447199,0.75705 h -1.765236 -1.765237 z m 7.610404,-20.92794 c -1.40632,-2.07355 -0.97471,-3.74445 0.96723,-3.74445 0.92487,0 2.40621,1.19921 2.40621,1.94793 0,0.36093 -1.95716,2.86202 -2.35198,3.00562 -0.0889,0.0323 -0.54852,-0.51177 -1.02146,-1.2091 z m 22.29115,30.66467 c 2.86395,-0.74896 6.06247,-2.37909 7.9246,-4.03878 3.30302,-2.94394 2.93546,-4.23882 -2.40512,-8.47296 -1.65327,-1.31075 -3.00594,-2.46382 -3.00594,-2.56237 0,-0.40508 0.68029,-0.81418 1.3539,-0.81418 0.39539,0 1.27505,0.2384 1.95481,0.52977 2.78554,1.19403 4.70672,0.86281 5.64324,-0.97291 0.54537,-1.06902 1.14668,-4.26065 0.83859,-4.45106 -0.0998,-0.0617 -1.83741,-0.24858 -3.86147,-0.41541 -2.02406,-0.16683 -3.71462,-0.335 -3.7568,-0.37372 -0.0422,-0.0387 1.38656,-0.35339 3.175,-0.69927 l 3.25169,-0.62886 0.0739,-3.68375 c 0.0556,-2.76954 -0.0101,-3.73706 -0.26459,-3.89855 -0.18617,-0.11815 -1.26597,-0.21663 -2.39955,-0.21886 -2.21228,-0.004 -3.88833,-0.59582 -4.40057,-1.55295 -0.23216,-0.43378 -0.1065,-0.52136 1.11563,-0.77756 0.75749,-0.15879 1.91303,-0.36873 2.56788,-0.46652 2.92546,-0.43691 5.22641,-1.70672 6.454,-3.56173 1.38943,-2.09958 1.1814,-3.66491 -0.58832,-4.42683 -0.79207,-0.34102 -2.04297,-0.4146 -6.79173,-0.39951 -5.3558,0.017 -5.94765,0.0659 -7.40833,0.61167 -4.33955,1.62148 -6.99208,5.16445 -7.21975,9.64334 -0.19945,3.92386 1.23032,6.22138 5.44255,8.74567 1.19574,0.71658 2.17408,1.3671 2.17408,1.44559 0,0.0785 -1.55055,0.65445 -3.44566,1.2799 -5.19134,1.71333 -6.73773,3.14896 -6.7385,6.25592 -5.3e-4,2.62068 1.38402,4.46817 4.2788,5.70902 2.36184,1.0124 4.90247,3.31708 3.32567,3.01681 -0.25466,-0.0485 -1.86336,-0.23542 -3.57489,-0.41539 -3.10798,-0.32681 -3.11269,-0.32645 -3.77071,0.29173 -0.75101,0.70553 -1.18359,2.01664 -1.18574,3.59381 -0.002,1.24577 0.5507,1.89675 1.90592,2.24608 1.49981,0.38659 7.01728,0.0686 9.3374,-0.53814 z M 87.181437,186.99071 c 1.12165,-0.23125 2.07351,-0.45391 2.11525,-0.49481 0.0932,-0.0913 -1.66045,-11.85795 -2.22956,-14.95974 -0.49066,-2.67421 -0.86927,-3.64461 -1.71483,-4.39512 -1.34381,-1.19276 -2.96083,-1.3824 -7.27085,-0.85273 l -2.50949,0.30839 0.169,0.81609 c 0.68448,3.30545 3.39179,14.82902 3.73485,15.89733 0.66752,2.07865 1.35265,3.25889 2.13968,3.68588 0.95335,0.51724 3.04106,0.51526 5.56595,-0.005 z m -1.97497,-22.6945 c 2.11513,-0.88375 2.41631,-2.91605 1.26295,-8.52192 -0.45127,-2.19335 -0.82049,-4.15849 -0.82049,-4.36697 0,-0.2188 0.67576,-0.64109 1.5983,-0.99882 2.21302,-0.85812 2.55909,-1.44164 2.11371,-3.56408 -0.18862,-0.89887 -0.42141,-2.75022 -0.5173,-4.11413 -0.26216,-3.72854 0.50773,-3.4733 -10.4766,-3.4733 h -9.07535 l 0.37178,1.65365 c 1.91758,8.52922 1.97803,8.65954 4.6122,9.94256 1.81538,0.88421 2.13491,1.50038 3.0421,5.86629 1.05122,5.0591 2.01738,6.65077 4.59658,7.57248 1.25048,0.44687 2.22975,0.44813 3.29212,0.004 z m 31.818503,-0.77845 c 0.38937,-0.45268 0.63735,-1.07215 0.63549,-1.5875 -0.005,-1.41743 -5.37386,-20.65088 -6.09576,-21.83794 -0.82092,-1.34989 -1.61211,-1.57863 -6.22735,-1.80034 -6.634966,-0.31875 -7.115516,-0.30001 -7.785057,0.30355 -0.322858,0.29105 -0.69437,0.80996 -0.825582,1.15315 -0.207417,0.5425 -3.426973,16.53805 -4.172932,20.73216 -0.535572,3.01122 0.240425,3.64274 4.479502,3.64551 2.580656,0.002 3.151719,-0.26335 3.953419,-1.83481 1.40131,-2.74679 4.46497,-3.48286 6.35946,-1.5279 0.45338,0.46785 1.20409,1.3021 1.66823,1.85388 1.14549,1.36173 2.44863,1.79307 5.16631,1.71 2.04929,-0.0626 2.25101,-0.12006 2.84427,-0.80976 z m -12.18771,-10.91643 c -0.95488,-0.49791 -1.19073,-0.83778 -1.18152,-1.70267 0.01,-0.91406 0.95156,-2.64502 1.15171,-2.11667 0.54076,1.42755 1.2144,3.57863 1.2144,3.87788 0,0.45662 -0.21719,0.44589 -1.18459,-0.0585 z m 24.30573,11.53786 c 0.85559,-0.32529 1.37658,-1.35953 1.60509,-3.18636 0.25978,-2.0768 0.95921,-6.19448 1.07122,-6.30649 0.0521,-0.0521 0.86744,0.21451 1.81196,0.59237 1.9244,0.76989 3.92614,0.89428 5.281,0.32819 2.68593,-1.12226 6.37527,-8.05693 5.89251,-11.0759 -0.36798,-2.30123 -2.33579,-4.68165 -4.3095,-5.21311 -2.08837,-0.56235 -14.64904,-1.33095 -16.04105,-0.98158 -1.39487,0.35009 -1.51182,0.87711 -2.04621,9.22143 -0.7495,11.70325 -0.8692,14.34965 -0.68268,15.09279 0.25661,1.02242 2.2125,1.67314 5.24752,1.74585 0.82727,0.0198 1.80383,-0.0779 2.17014,-0.21719 z m 2.61651,-15.145 c 0.14931,-0.62603 0.37692,-1.58393 0.5058,-2.12866 0.1692,-0.71516 0.46198,-1.10815 1.05346,-1.41401 0.97332,-0.50332 1.17217,-0.31041 1.42878,1.38611 0.28823,1.90555 -0.29883,2.65771 -2.43271,3.11688 l -0.82681,0.17791 z M 99.070692,136.33772 c 0.621681,-0.26976 1.797108,-1.2085 2.645838,-2.11309 1.99491,-2.12619 3.17064,-2.73435 4.99386,-2.58316 1.64126,0.13611 2.85355,0.94694 4.07918,2.72832 1.23375,1.7932 1.97192,2.0746 5.75477,2.19379 3.75754,0.11839 4.39969,0.007 4.96831,-0.86068 0.39247,-0.59899 0.24911,-1.34 -2.50986,-12.97288 -1.60936,-6.78568 -3.11276,-12.69855 -3.34089,-13.1397 -0.80466,-1.55604 -1.55658,-1.66701 -8.81865,-1.30144 -6.7194,0.33825 -8.381708,0.62359 -9.443405,1.62101 -0.857977,0.80602 -1.083868,1.6218 -3.700317,13.36337 -2.490885,11.17808 -2.560891,11.87705 -1.274024,12.72023 0.976011,0.63951 3.252539,1.13449 4.468212,0.97151 0.582083,-0.078 1.561722,-0.36031 2.176976,-0.62728 z m 6.277668,-11.75308 c -0.82086,-0.82086 -0.8144,-1.31417 0.0454,-3.4618 0.8361,-2.08854 1.30765,-2.14931 1.974,-0.25439 0.70634,2.00867 0.64892,3.15663 -0.19093,3.81726 -0.88608,0.69699 -1.03882,0.68854 -1.82843,-0.10107 z m 33.24612,12.28562 c 3.33593,-0.63264 6.19461,-2.64013 8.32683,-5.84744 2.32771,-3.50138 2.71466,-6.2315 1.29459,-9.134 -0.90951,-1.85897 -1.80066,-2.5543 -5.48312,-4.27825 -1.70987,-0.80048 -3.10885,-1.53667 -3.10885,-1.63599 0,-0.32646 1.33012,-0.79467 2.25754,-0.79467 0.50583,0 1.60941,0.36676 2.48567,0.82609 1.96893,1.03208 3.0308,0.92195 4.22504,-0.43823 1.01235,-1.153 1.92911,-4.09228 1.97645,-6.33681 l 0.0355,-1.68355 3.23454,-0.0864 c 2.95191,-0.0788 3.28714,-0.13901 3.83646,-0.68901 0.83748,-0.83852 0.84128,-2.71515 0.007,-3.54925 -0.55107,-0.55108 -0.92006,-0.60886 -5.02708,-0.7873 -2.43779,-0.10591 -8.54001,-0.49216 -13.56047,-0.85832 -15.58606,-1.13676 -20.03734,-1.29772 -31.22084,-1.12895 -10.376715,0.15659 -15.30782,0.37729 -36.629093,1.6394 -6.10325,0.36128 -11.29338,0.65687 -11.53364,0.65687 -0.30507,0 -0.58473,0.48849 -0.92717,1.61949 -0.47256,1.56074 -0.47301,1.63216 -0.0123,1.96903 1.01821,0.74454 3.15351,0.68023 12.85427,-0.3871 13.96473,-1.53647 17.30616,-1.71189 29.104173,-1.52794 18.42724,0.28731 36.63396,0.98248 37.43229,1.42925 0.38339,0.21456 0.0955,0.41266 -1.6157,1.1117 -5.96269,2.43583 -7.5567,3.60372 -8.553,6.26658 -0.73139,1.95481 -0.73731,5.11319 -0.0132,7.0485 0.65218,1.74312 1.88162,2.96917 4.6304,4.61764 2.29517,1.37643 3.01982,2.30968 2.51943,3.24467 -0.44933,0.83957 -1.481,0.94527 -3.01612,0.30899 -1.98736,-0.82371 -4.66118,-0.74701 -4.66118,0.13371 0,0.20785 -0.47625,1.27679 -1.05834,2.37544 -1.16346,2.19596 -1.23505,2.60493 -0.68599,3.91901 0.424,1.01478 0.34912,0.98993 5.18391,1.72031 3.8574,0.58273 5.73213,0.65003 7.7018,0.27649 z m -50.564303,-3.69868 c 0,-1.74625 -0.0893,-3.17746 -0.19844,-3.18045 -0.10914,-0.003 -1.97294,-0.12038 -4.14177,-0.26085 -4.22749,-0.2738 -4.87474,-0.48224 -5.54805,-1.78672 -0.39655,-0.76829 -1.11252,-4.89185 -2.17018,-12.49907 -0.46697,-3.35871 -0.77966,-4.81185 -1.13866,-5.29166 l -0.49491,-0.66146 -4.99013,0.0934 c -2.75932,0.0516 -5.4059,0.22903 -5.92015,0.39687 -0.81711,0.26668 -0.93993,0.42334 -1.01181,1.29054 -0.0515,0.62109 0.30806,2.19053 0.96981,4.23333 1.4547,4.49061 3.29442,10.83191 4.25568,14.66888 1.00696,4.01933 1.20534,4.54204 2.0664,5.44463 l 0.69413,0.72761 h 8.81404 8.81404 z M 113.82705,95.629834 c 1.43821,-0.663776 1.8071,-1.126969 4.65894,-5.849927 2.73457,-4.528751 3.8082,-5.872432 5.3005,-6.633743 1.32789,-0.67744 3.53833,-0.660581 6.05317,0.04617 3.59603,1.010592 6.0265,0.562519 8.0063,-1.476013 0.84919,-0.874383 2.03212,-3.179834 1.75002,-3.410682 -0.22069,-0.180597 -6.27399,-1.738545 -7.90955,-2.035693 -2.51186,-0.456354 -6.45684,-0.409109 -8.40014,0.100599 -3.69252,0.968513 -5.86799,2.61338 -9.11622,6.892755 -1.33981,1.765123 -3.4644,4.519004 -4.72131,6.119733 -2.73063,3.477565 -3.05826,3.982853 -3.28309,5.063239 l -0.1727,0.829905 2.06496,0.393727 c 2.88287,0.54968 4.51589,0.538337 5.76912,-0.04007 z"
       id="path603" />
  </g>
</svg>
