<?xml version="1.0" encoding="UTF-8" standalone="no"?>
<!-- Created with Inkscape (http://www.inkscape.org/) -->

<svg
   width="401.84915mm"
   height="226.77715mm"
   viewBox="0 0 401.84915 226.77715"
   version="1.1"
   id="svg5"
   inkscape:version="1.1.1 (3bf5ae0d25, 2021-09-20, custom)"
   sodipodi:docname="LogoTapiocasRec.svg"
   xmlns:inkscape="http://www.inkscape.org/namespaces/inkscape"
   xmlns:sodipodi="http://sodipodi.sourceforge.net/DTD/sodipodi-0.dtd"
   xmlns="http://www.w3.org/2000/svg"
   xmlns:svg="http://www.w3.org/2000/svg">
  <sodipodi:namedview
     id="namedview7"
     pagecolor="#ffffff"
     bordercolor="#666666"
     borderopacity="1.0"
     inkscape:pageshadow="2"
     inkscape:pageopacity="0.0"
     inkscape:pagecheckerboard="0"
     inkscape:document-units="mm"
     showgrid="false"
     fit-margin-top="0"
     fit-margin-left="0"
     fit-margin-right="0"
     fit-margin-bottom="0"
     inkscape:zoom="0.905042"
     inkscape:cx="444.73074"
     inkscape:cy="497.76695"
     inkscape:window-width="3440"
     inkscape:window-height="1440"
     inkscape:window-x="0"
     inkscape:window-y="0"
     inkscape:window-maximized="1"
     inkscape:current-layer="g9374" />
  <defs
     id="defs2" />
  <g
     inkscape:label="Layer 1"
     inkscape:groupmode="layer"
     id="layer1"
     transform="translate(91.243471,-8.0465971)">
    <g
       id="g9374"
       transform="translate(29.51792,21.137775)">
      <rect
         style="fill:#000000;fill-rule:evenodd;stroke-width:0.264583"
         id="rect348"
         width="401.84915"
         height="226.77715"
         x="-120.76139"
         y="-13.091178" />
      <g
         id="g663"
         transform="matrix(0.75876845,0,0,0.75876845,89.052404,3.7605005)">
        <path
           id="path3398"
           style="fill:#ffffff;stroke-width:0.0467722"
           d="m 12.014831,193.52944 c -1.184492,0.0357 -2.7672268,0.20439 -6.227527,0.663 -5.78061924,0.76615 -7.7217322,0.92024 -13.3459536,1.05731 -2.4082851,0.0587 -7.3022224,0.0306 -8.8583744,-0.0501 -3.67929,-0.19091 -5.85448,-0.35197 -12.976987,-0.96066 -5.501661,-0.47018 -6.749555,-0.54994 -8.635129,-0.55346 -0.78268,-0.002 -1.331799,0.0164 -1.723411,0.063 -0.39161,0.0467 -0.628653,0.12118 -0.781865,0.24547 l -0.109035,0.0884 a 0.06668693,0.06668693 0 0 0 -0.0067,0.0972 l 0.116789,0.12557 c 0.121164,0.13022 0.353066,0.26257 0.676961,0.40876 0.323897,0.14619 0.73815,0.30203 1.214397,0.45785 0.952493,0.31165 2.151719,0.62433 3.359484,0.8599 2.616702,0.51039 6.94369,1.03458 11.373466,1.37821 2.002216,0.15532 3.372482,0.21439 5.91902,0.25631 7.876239,0.12966 20.1247798,-0.0973 23.8858795,-0.44338 0.8928894,-0.0822 2.5870826,-0.29665 3.8860677,-0.49299 1.6954768,-0.25628 2.9950008,-0.52065 3.8917508,-0.79169 0.448376,-0.13551 0.795856,-0.27243 1.044382,-0.41341 0.248526,-0.14098 0.40409,-0.28636 0.446484,-0.45527 0.02828,-0.11268 -5.29e-4,-0.23453 -0.07752,-0.36432 -0.07709,-0.12978 -0.202475,-0.27255 -0.38137,-0.44131 -0.327324,-0.30878 -0.640707,-0.50666 -1.051616,-0.61805 -0.410911,-0.1114 -0.916522,-0.13803 -1.639178,-0.11627 z" />
        <path
           id="path3147"
           style="fill:#ffffff;stroke-width:0.0661458"
           d="m 11.121346,149.72126 c -3.7356094,-5.3e-4 -5.6545265,0.0657 -6.4797063,0.23616 -1.6337704,0.33746 -3.68198664,1.39899 -5.05343846,2.61483 -1.96456034,1.74163 -3.15837094,4.09744 -3.47007384,6.84144 -0.1086882,0.95682 -0.046667,2.57687 0.1328102,3.35948 0.5403427,2.35621 2.0303119,4.07509 5.1929638,6.02082 0.7320386,0.45037 1.2999006,0.81292 1.6825833,1.07281 0.1913414,0.12994 0.3366214,0.23425 0.4309824,0.30954 0.027794,0.0222 0.041002,0.0352 0.059428,0.0517 -0.015743,0.009 -0.021802,0.0149 -0.044442,0.0264 -0.1008856,0.0511 -0.2686076,0.12271 -0.5136647,0.21756 -0.4901089,0.1897 -1.291373,0.47416 -2.52439219,0.89968 -2.70876181,0.93481 -3.69685881,1.36761 -4.80590751,2.10944 -1.079918,0.72234 -1.7550421,1.62612 -2.058789,2.76365 -0.208108,0.77936 -0.2078646,2.23878 0,3.02307 0.2471975,0.93271 0.6778466,1.70516 1.3389345,2.39985 0.7162853,0.7527 1.334389,1.16538 2.8654586,1.91823 1.38719192,0.68211 2.33519135,1.2964 3.0571784,1.97559 0.27695,0.26054 0.4586076,0.45613 0.5565537,0.5979 0.097946,0.14178 0.1041268,0.20957 0.088368,0.25063 -0.00132,0.003 3.97e-5,5.3e-4 -0.00106,0.003 -0.016907,0.004 -0.091199,0.0116 -0.2578655,5.3e-4 -0.34936644,-0.0231 -1.07202024,-0.10498 -2.5522978,-0.2713 -1.7874774,-0.20084 -2.7893063,-0.30663 -3.4049599,-0.33487 -0.6156537,-0.0282 -0.8652061,0.0263 -1.0929567,0.14366 -0.1455685,0.075 -0.3233103,0.24152 -0.5110798,0.43977 -0.1877695,0.19825 -0.3729355,0.42336 -0.4878255,0.60926 -0.461129,0.74616 -0.7900617,2.34908 -0.6847125,3.29645 0.069564,0.62557 0.3338988,1.12645 0.7916809,1.48001 0.4577821,0.35356 1.0998068,0.56151 1.9254655,0.64079 1.8242386,0.17515 5.7987194,-0.0801 7.9059774,-0.50437 1.5963001,-0.32142 3.8999689,-1.19369 5.55625,-2.10116 1.674333,-0.91737 2.811356,-1.76562 3.950144,-2.95021 0.578737,-0.602 0.803019,-0.89178 1.005626,-1.30173 0.229679,-0.46474 0.264112,-0.60573 0.264065,-1.09295 -6.4e-5,-0.64969 -0.178475,-1.09873 -0.719336,-1.82831 -0.444339,-0.59939 -1.732087,-1.83633 -2.832902,-2.73317 -2.0720126,-1.68809 -3.3343715,-2.73194 -3.6633412,-3.02824 l -0.2961057,-0.26717 0.089916,-0.17001 c 0.1357974,-0.25699 0.5370724,-0.48871 1.0092398,-0.53744 0.4082548,-0.0421 1.2058439,0.14071 2.246892,0.54777 1.4284961,0.55855 2.5958131,0.75711 3.5351851,0.57206 0.939371,-0.18505 1.639819,-0.76481 2.101165,-1.71101 0.465166,-0.95402 0.9203,-3.11734 0.883666,-4.19612 -0.0026,-0.0774 -0.01654,-0.14957 -0.06098,-0.21084 -0.04443,-0.0613 -0.11466,-0.0963 -0.185002,-0.11214 -0.159007,-0.0357 -0.616061,-0.0883 -1.305346,-0.15865 -0.689284,-0.0704 -1.595167,-0.15469 -2.596224,-0.24081 -1.880499,-0.16178 -2.7496604,-0.25117 -3.1899853,-0.31471 0.021325,-0.005 0.02917,-0.009 0.05271,-0.015 0.5144346,-0.12796 1.5574273,-0.33774 3.4003083,-0.69712 0.67863,-0.13234 1.299456,-0.25721 1.753899,-0.3514 0.227219,-0.0471 0.412862,-0.0866 0.543634,-0.11575 0.06539,-0.0146 0.117221,-0.0263 0.154515,-0.0357 0.01865,-0.005 0.03317,-0.009 0.04599,-0.0124 0.0064,-0.002 0.01236,-0.004 0.01963,-0.007 0.0037,-0.001 0.0073,-0.003 0.01344,-0.006 0.003,-0.002 0.0069,-0.003 0.01188,-0.006 0.0049,-0.003 0.0205,-0.0164 0.02066,-0.0165 0.03781,-0.0378 0.02974,-0.0472 0.03256,-0.0574 0.0028,-0.0101 0.0043,-0.0181 0.0057,-0.0264 0.0028,-0.0165 0.0046,-0.0345 0.0067,-0.0568 0.0043,-0.0447 0.0087,-0.1054 0.01291,-0.18139 0.0085,-0.15196 0.01709,-0.36458 0.02585,-0.62063 0.01752,-0.51209 0.035,-1.19662 0.04909,-1.90324 0.02818,-1.41325 0.0443,-2.90277 0.0217,-3.30781 -0.02887,-0.51733 -0.06296,-0.86583 -0.11834,-1.10639 -0.02769,-0.12028 -0.06043,-0.21444 -0.106452,-0.29042 -0.04602,-0.076 -0.109985,-0.13426 -0.185002,-0.16278 -0.08316,-0.0316 -0.202335,-0.0515 -0.366903,-0.0744 -0.164568,-0.0229 -0.368036,-0.0451 -0.589111,-0.0641 -0.442153,-0.038 -0.954016,-0.065 -1.360641,-0.0651 -1.087771,-2.6e-4 -2.060321,-0.15063 -2.8153306,-0.41289 -0.7550124,-0.26226 -1.2862613,-0.63743 -1.51257,-1.06402 -0.087604,-0.16514 -0.1069472,-0.26336 -0.096636,-0.30541 0.010319,-0.0421 0.050726,-0.0847 0.1881029,-0.14211 0.033827,-0.0141 0.202647,-0.0612 0.4294319,-0.11369 0.226785,-0.0525 0.5222875,-0.11583 0.8516276,-0.18293 0.6586802,-0.1342 1.4540782,-0.28347 2.1146002,-0.39274 3.389781,-0.56077 5.597395,-1.86151 6.8864,-4.07934 0.4166,-0.71681 0.630886,-1.38084 0.632518,-1.97352 0.0016,-0.59268 -0.21554,-1.11294 -0.643887,-1.51361 -0.470617,-0.4402 -0.936405,-0.70019 -1.957504,-0.8356 -1.021098,-0.13542 -2.610787,-0.16084 -5.399669,-0.16123 z" />
        <path
           id="path2896"
           style="fill:#ffffff;stroke-width:0.0935442"
           d="m -17.512566,148.82519 c -1.049821,0.007 -2.079595,0.0797 -2.732132,0.22066 -3.96135,0.85568 -7.680523,3.40937 -9.000485,6.20634 -0.149555,0.3169 -0.230346,0.49347 -0.269232,0.75706 -0.03889,0.26358 -0.03689,0.60617 -0.03307,1.27692 0.01535,2.69678 0.626407,4.56438 2.279447,6.97012 1.361794,1.98188 3.200688,4.03908 4.545459,5.07928 0.424294,0.32819 0.923838,0.74509 1.096574,0.91312 v -5.3e-4 l 0.222208,0.216 -0.137459,0.0377 c -0.02228,0.006 -0.09894,0.0178 -0.210839,0.0289 -0.111898,0.0112 -0.262964,0.0236 -0.451652,0.0362 -0.37738,0.0252 -0.905436,0.0526 -1.578715,0.0827 -1.34656,0.0601 -3.273248,0.12971 -5.736601,0.20619 -1.544407,0.0479 -2.4955,0.0955 -3.164665,0.18604 -0.669166,0.0905 -1.059879,0.22667 -1.460892,0.44493 -0.598633,0.32582 -0.992656,0.8019 -1.224732,1.62161 -0.232077,0.8197 -0.312775,1.98426 -0.312643,3.72535 2.6e-4,2.53274 0.166736,8.79442 0.285253,10.70994 0.101976,1.64815 0.24543,2.71114 0.533302,3.42977 0.287872,0.71863 0.73361,1.08847 1.393714,1.31206 0.843674,0.28577 2.284831,0.46299 3.459737,0.42995 0.556601,-0.0157 0.839798,-0.0228 1.060399,-0.0734 0.220605,-0.0506 0.366123,-0.14542 0.623218,-0.31626 0.292804,-0.19458 0.911162,-0.6771 1.388028,-1.08159 1.196891,-1.01524 1.940145,-1.61451 2.498556,-1.97094 0.558411,-0.35643 0.926245,-0.4713 1.400948,-0.5271 0.523319,-0.0615 0.99555,0.0199 1.561147,0.3142 0.565595,0.2943 1.221436,0.80481 2.087211,1.59783 1.648632,1.51009 2.343576,1.98947 3.170864,2.16679 0.653669,0.14011 2.106419,0.0368 2.864424,-0.19585 0.88146,-0.27059 1.690108,-0.70064 2.053622,-1.11466 0.124381,-0.14166 0.204036,-0.25086 0.247531,-0.39222 0.0435,-0.14137 0.05039,-0.30411 0.05012,-0.56173 -0.0011,-1.00934 -0.496265,-2.75732 -2.280996,-8.13852 -1.405549,-4.23792 -2.000428,-5.74976 -3.244247,-8.24342 -0.37469,-0.7512 -0.67863,-1.3988 -0.888318,-1.88774 -0.104843,-0.24448 -0.186327,-0.44956 -0.240813,-0.60669 -0.05145,-0.14837 -0.07275,-0.24962 -0.07545,-0.29041 0.01334,-0.011 0.03831,-0.0281 0.07648,-0.0486 0.07985,-0.0429 0.209867,-0.0997 0.392739,-0.17053 0.365744,-0.14171 0.94365,-0.34038 1.782321,-0.61392 3.548883,-1.15752 5.128956,-2.0099 6.7985507,-3.67161 2.8444454,-2.83101 4.0506385,-6.88771 3.0566624,-10.31772 -0.5175594,-1.78598 -1.3766509,-3.1106 -3.02514,-4.67103 -1.7805611,-1.68545 -3.2477761,-2.38976 -6.0228871,-2.89285 -0.721919,-0.13087 -1.787719,-0.1896 -2.837554,-0.18241 z m -0.288869,8.51783 c 0.648139,-0.0679 1.366483,0.19379 2.021065,0.76997 0.384103,0.33811 0.589312,0.61225 0.646988,0.87024 0.05768,0.25798 -0.02156,0.51823 -0.250113,0.85731 -0.232722,0.34528 -0.651555,0.88665 -1.033529,1.35134 -0.190987,0.23234 -0.372885,0.44549 -0.517797,0.60616 -0.07246,0.0803 -0.13588,0.14788 -0.185518,0.19689 -0.04964,0.049 -0.09253,0.0813 -0.09405,0.0822 -0.06518,0.0349 -0.114818,0.0563 -0.150378,0.0641 -0.03556,0.008 -0.05536,0.006 -0.0863,-0.008 -0.06187,-0.0281 -0.164058,-0.13156 -0.331764,-0.34055 -0.977715,-1.21839 -1.353312,-2.03911 -1.356506,-2.92695 -0.0013,-0.35823 0.05372,-0.63228 0.168463,-0.84595 0.114745,-0.21366 0.289581,-0.37174 0.547254,-0.49816 0.197517,-0.0969 0.406178,-0.15616 0.622186,-0.1788 z m -7.570081,22.96345 c 0.08503,-0.01 0.147516,0.003 0.264067,0.0806 0.116549,0.078 0.276778,0.22407 0.518314,0.4656 0.531304,0.53131 1.124196,1.32677 1.724959,2.31924 l 0.133326,0.22066 h -1.688269 -1.74098 l 0.03824,-0.25218 c 0.02963,-0.19511 0.100195,-0.70842 0.15658,-1.14412 0.05561,-0.42972 0.17367,-1.00115 0.255281,-1.24695 0.06486,-0.19535 0.114485,-0.30704 0.159681,-0.36225 0.04519,-0.0552 0.08224,-0.0695 0.1788,-0.0806 z" />
        <path
           id="path2645"
           style="fill:#ffffff;stroke-width:0.0661458"
           d="m -38.139728,148.80762 c -0.64888,2.6e-4 -1.351899,0.0247 -1.845366,0.0744 -0.446844,0.045 -1.470014,0.16307 -2.385385,0.27285 -0.457684,0.0549 -0.888595,0.10759 -1.206127,0.1478 -0.158766,0.0201 -0.288983,0.0375 -0.380857,0.0501 -0.04593,0.006 -0.08211,0.0114 -0.108003,0.0155 -0.01294,0.002 -0.02336,0.003 -0.03204,0.005 -0.0043,7.9e-4 -0.0079,0.002 -0.01291,0.003 -0.0026,5.2e-4 -0.0054,0.001 -0.01035,0.003 -0.0024,7.9e-4 -0.0056,0.002 -0.01035,0.005 -0.0048,0.002 -0.02318,0.0164 -0.02326,0.0165 -2.6e-4,2.6e-4 -0.01998,0.0287 -0.02273,0.0372 -0.0028,0.008 -0.0035,0.014 -0.0041,0.0186 -0.0011,0.009 -0.0011,0.0151 -0.0011,0.0207 2.65e-4,0.0113 0.0016,0.0212 0.0031,0.0336 0.003,0.0248 0.0078,0.0574 0.01497,0.0987 0.01442,0.0826 0.03751,0.20013 0.06821,0.35036 0.06141,0.30046 0.153639,0.73023 0.269751,1.25729 0.232228,1.05413 0.559425,2.49815 0.922425,4.07624 0.726001,3.15618 1.595639,6.84764 2.137336,9.02425 0.627941,2.52314 1.144706,3.87746 1.850017,4.81573 0.524026,0.69711 1.111546,0.98456 2.220537,1.09451 1.120124,0.11105 2.725203,-0.053 4.673099,-0.47233 0.692516,-0.14909 1.327045,-0.28551 1.408182,-0.30282 0.06985,-0.0149 0.139544,-0.0477 0.177249,-0.11162 0.03771,-0.0639 0.04238,-0.13521 0.04238,-0.22789 0,-0.10033 -0.02611,-0.33558 -0.07235,-0.7059 -0.04624,-0.37033 -0.112784,-0.86587 -0.194302,-1.4516 -0.163039,-1.17145 -0.385786,-2.70248 -0.625284,-4.30361 -0.478999,-3.20225 -1.024681,-6.68429 -1.291394,-8.14059 -0.287139,-1.56781 -0.536819,-2.58994 -0.872816,-3.33003 -0.335997,-0.74009 -0.763095,-1.19554 -1.380794,-1.60868 -0.522724,-0.34962 -1.064239,-0.55859 -1.788004,-0.69143 -0.283956,-0.0521 -0.870924,-0.0742 -1.519804,-0.0739 z" />
        <path
           id="path2394"
           style="fill:#ffffff;stroke-width:0.132292"
           d="m -42.730146,121.88265 c -3.611708,-0.002 -5.521049,-2.1e-4 -6.53035,0.03 -0.504653,0.0151 -0.777756,0.0336 -0.9617,0.0744 -0.09197,0.0204 -0.174344,0.0386 -0.256831,0.12816 -0.08249,0.0896 -0.08368,0.2427 -0.06563,0.30489 0.0026,0.009 0.03443,0.1355 0.077,0.31368 0.04257,0.17818 0.100005,0.42108 0.167947,0.71158 0.135888,0.58101 0.31396,1.35111 0.50178,2.16938 0.722043,3.14574 1.136351,4.84003 1.680001,5.93607 0.543647,1.09604 1.240036,1.56331 2.378149,2.15543 1.039286,0.54069 1.534369,0.84208 1.9451,1.60713 0.410732,0.76505 0.728517,2.04037 1.272273,4.45554 0.837502,3.71989 1.484418,5.28442 2.701645,6.38411 0.603728,0.54543 1.751523,1.129 2.593123,1.32705 1.342768,0.316 2.726171,0.0298 3.676779,-0.78393 0.707178,-0.60532 1.086565,-1.42304 1.118277,-2.78174 0.03171,-1.3587 -0.252084,-3.28642 -0.83199,-6.26215 -0.161007,-0.8262 -0.307446,-1.6135 -0.413411,-2.21537 -0.05298,-0.30093 -0.09568,-0.55597 -0.125058,-0.74466 -0.02937,-0.18868 -0.04341,-0.34099 -0.04341,-0.32504 0,-0.12045 0.03626,-0.20761 0.278019,-0.38189 0.241761,-0.17428 0.674622,-0.39043 1.344105,-0.67128 1.193577,-0.50071 1.971254,-1.088 2.154391,-1.81436 0.04751,-0.18842 0.03803,-0.41599 0.01601,-0.72915 -0.02201,-0.31316 -0.06746,-0.69058 -0.132292,-1.08262 -0.226766,-1.37131 -0.393419,-2.75973 -0.604096,-5.02657 -0.03492,-0.37581 -0.08666,-0.74798 -0.142627,-1.05058 -0.02799,-0.15131 -0.05705,-0.28494 -0.08682,-0.39584 -0.02977,-0.11091 -0.05034,-0.19075 -0.106453,-0.28061 -0.151389,-0.2424 -0.387223,-0.45426 -0.764812,-0.59479 -0.37759,-0.14053 -0.898425,-0.23034 -1.698088,-0.29611 -1.599325,-0.13153 -4.318553,-0.15791 -9.141042,-0.16071 z" />
        <path
           id="path1952"
           style="fill:#ffffff;stroke-width:0.132292"
           d="m -19.138306,120.86721 c -1.267539,-0.0154 -1.975749,-0.007 -2.47995,0.14676 -0.504203,0.15383 -0.774046,0.47085 -1.094507,0.97617 -0.213812,0.33714 -0.321064,0.45249 -0.535368,1.33945 -0.214308,0.88696 -0.55499,2.57667 -1.287778,6.1681 -0.941795,4.61578 -1.649121,8.19193 -2.121318,10.72441 -0.236098,1.26624 -0.413268,2.27171 -0.531749,3.01635 -0.118483,0.74464 -0.179319,1.2187 -0.179319,1.46503 0,0.36644 0.0097,0.60005 0.0739,0.80718 0.06417,0.20714 0.181882,0.36796 0.360185,0.57103 0.314021,0.35765 0.676788,0.58919 1.280025,0.71313 0.603237,0.12395 1.452311,0.15658 2.809647,0.15658 1.469697,0 2.250972,-0.007 2.835487,-0.27078 0.584512,-0.26426 0.908336,-0.77211 1.451589,-1.6831 0.590126,-0.9896 1.589529,-1.88892 2.33681,-2.14354 0.306152,-0.10432 0.966902,-0.20206 1.407666,-0.20206 0.617527,0 1.032068,0.0795 1.522388,0.38241 0.490318,0.30287 1.056201,0.84192 1.912028,1.7601 0.77457,0.831 1.328936,1.36097 1.8624175,1.71462 0.533482,0.35365 1.0450248,0.52413 1.697572,0.63407 0.9136988,0.15394 2.6142605,0.15737 3.6349198,0.01 0.9702271,-0.14026 1.5280587,-0.54117 1.9311461,-1.39061 0.171114,-0.3606 0.2438718,-0.72678 0.1839701,-1.31569 -0.059904,-0.5889 -0.2433029,-1.41341 -0.5767096,-2.75952 -0.9293331,-3.75214 -2.1843286,-8.309 -3.2830029,-12.03544 -0.5493385,-1.86322 -1.0595213,-3.5186 -1.4707129,-4.76302 -0.2055945,-0.62221 -0.3866541,-1.14162 -0.5358844,-1.53427 -0.1492277,-0.39265 -0.2554103,-0.64714 -0.3576003,-0.79065 -0.4502547,-0.63232 -1.178851,-0.99612 -2.3213064,-1.19528 -1.262761,-0.22013 -5.477208,-0.46421 -8.524544,-0.50126 z m 4.040582,10.87065 c 0.115324,0.0631 0.201766,0.27293 0.173114,0.22996 0.112038,0.22808 0.263361,0.64158 0.491961,1.32137 0.152593,0.45376 0.29604,0.91856 0.403077,1.29914 0.107035,0.38058 0.177448,0.69403 0.184483,0.78032 0.01469,0.18005 7.94e-4,0.27836 -0.0067,0.29455 -0.0038,0.008 0.0024,0.002 -0.0047,0.006 -0.007,0.004 -0.03198,0.0116 -0.07596,0.0165 -0.03467,0.004 -0.188114,-0.0222 -0.363802,-0.0884 -0.175686,-0.0661 -0.384456,-0.16436 -0.589111,-0.27595 -0.204655,-0.11159 -0.405778,-0.23669 -0.567923,-0.35502 -0.162147,-0.11833 -0.286033,-0.23703 -0.327112,-0.29972 -0.08829,-0.13475 -0.143669,-0.40011 -0.141595,-0.71521 0.0021,-0.31509 0.05483,-0.67865 0.142111,-1.01854 0.08728,-0.33988 0.210243,-0.65709 0.343133,-0.87798 0.132887,-0.22089 0.270039,-0.31678 0.338997,-0.31678 z" />
        <path
           id="path1701"
           style="fill:#ffffff;stroke-width:0.132292"
           d="m 7.6946826,120.98606 c -1.0953565,-0.033 -1.9236584,-0.0367 -2.3207901,0.005 -0.5819166,0.0614 -1.0004663,0.16941 -1.3141298,0.38809 -0.3136662,0.21868 -0.5041582,0.54382 -0.6356218,0.9865 -0.3031834,1.02093 -0.5404934,3.72888 -1.0061389,11.12336 -0.2580111,4.0972 -0.4149328,6.96825 -0.4790414,8.88473 -0.032054,0.95823 -0.041145,1.67762 -0.027906,2.19469 0.013229,0.51707 0.038597,0.81926 0.1147234,1.00304 0.1572418,0.37962 0.4847272,0.68052 0.9885706,0.91933 0.5038407,0.2388 1.189011,0.42257 2.0980611,0.57671 0.7814019,0.13249 1.7523778,0.17804 2.6065586,0.14934 0.427093,-0.0143 0.8242644,-0.0471 1.1554857,-0.0982 0.3312239,-0.0511 0.5927724,-0.1154 0.7699798,-0.21653 0.4255352,-0.24284 0.7342432,-0.61831 0.9777182,-1.28468 0.243477,-0.66636 0.435443,-1.63024 0.657325,-3.10368 0.319426,-2.12122 0.520507,-3.37798 0.671793,-4.09691 0.07564,-0.35946 0.140592,-0.58534 0.193786,-0.70693 0.0266,-0.0608 0.05068,-0.0942 0.06149,-0.1049 0.01082,-0.0107 -2.65e-4,-0.003 -0.0036,-0.003 -0.01651,0 0.07188,0.0121 0.175699,0.0398 0.103817,0.0277 0.242411,0.0684 0.404627,0.11886 0.324435,0.10082 0.743445,0.24029 1.176674,0.39377 1.509093,0.53465 1.695011,0.56791 3.14761,0.56844 0.695299,2.7e-4 1.094179,-0.006 1.40715,-0.0563 0.312967,-0.0498 0.533709,-0.14597 0.839223,-0.30695 1.222688,-0.64425 2.5858,-2.31879 3.696933,-4.24419 1.111134,-1.92539 1.959991,-4.09744 2.084629,-5.75985 0.0953,-1.27126 -0.240094,-2.36677 -1.120347,-3.69177 -1.221287,-1.83834 -2.433021,-2.56583 -4.77335,-2.86649 -2.642902,-0.33953 -8.260993,-0.71276 -11.5470998,-0.81184 z m 6.5789254,7.14117 c 0.115226,0.004 0.19898,0.0367 0.262001,0.0997 0.04605,0.0461 0.11561,0.16761 0.174665,0.33383 0.05906,0.16623 0.112897,0.37709 0.155546,0.60978 0.0853,0.46539 0.126894,1.01928 0.09664,1.49449 -0.02209,0.34683 -0.05142,0.56023 -0.106971,0.71778 -0.05554,0.15756 -0.136493,0.26978 -0.290939,0.43099 -0.181059,0.18898 -0.658222,0.48768 -1.006657,0.61804 -0.35854,0.13415 -0.952074,0.29104 -1.285708,0.34107 -0.256972,0.0385 -0.374481,0.0403 -0.415478,0.0398 0.0024,-0.0101 7.93e-4,-0.006 0.0047,-0.0181 0.0259,-0.0839 0.08597,-0.32193 0.170014,-0.66404 0.08405,-0.34211 0.18928,-0.77962 0.29559,-1.2299 0.105362,-0.44627 0.22951,-0.89051 0.344164,-1.24437 0.05733,-0.17693 0.112525,-0.33131 0.160713,-0.45062 0.04819,-0.1193 0.09468,-0.20761 0.112139,-0.23099 0.401934,-0.53835 0.98393,-0.85822 1.329634,-0.84749 z" />
        <path
           id="path1450"
           style="fill:#ffffff;stroke-width:0.132292"
           d="m -45.416804,92.25035 -3.035475,0.03927 c -2.241359,0.02882 -4.096607,0.09366 -5.479251,0.188619 -0.691321,0.04748 -1.264226,0.102489 -1.710488,0.164848 -0.446265,0.06236 -0.76008,0.126945 -0.964285,0.216525 -0.242901,0.106555 -0.410445,0.193796 -0.532783,0.334864 -0.122336,0.141066 -0.174218,0.314206 -0.217041,0.540017 -0.158107,0.833748 0.189974,2.222514 1.527556,6.555677 1.447379,4.68885 2.478199,8.28194 3.707268,12.92376 0.258958,0.97801 0.525153,1.92731 0.745691,2.67012 0.110268,0.3714 0.208669,0.69104 0.289904,0.93793 0.08123,0.24688 0.139398,0.4121 0.190685,0.51263 0.167598,0.32851 0.55961,0.85116 0.902271,1.21749 l 0.600996,0.64286 a 0.17118525,0.17118525 0 0 0 0.125058,0.0543 h 8.799978 8.799465 a 0.17118525,0.17118525 0 0 0 0.171048,-0.1757 l -0.077,-2.99362 c -0.02125,-0.82489 -0.05291,-1.58631 -0.08682,-2.15077 -0.01696,-0.28223 -0.0343,-0.51477 -0.05168,-0.68368 -0.0087,-0.0845 -0.01707,-0.15235 -0.02635,-0.20619 -0.0047,-0.0269 -0.0093,-0.0503 -0.01603,-0.0739 -0.0067,-0.0236 0.0048,-0.0424 -0.05736,-0.10232 -0.06091,-0.0588 -0.07561,-0.0465 -0.0987,-0.0532 -0.0231,-0.007 -0.0466,-0.0117 -0.07441,-0.017 -0.05562,-0.0108 -0.12691,-0.0217 -0.216009,-0.0336 -0.178194,-0.0238 -0.424767,-0.0508 -0.723987,-0.0796 -0.598435,-0.0575 -1.40679,-0.12208 -2.282547,-0.18035 -2.404478,-0.16001 -3.78931,-0.28667 -4.632275,-0.49093 -0.842968,-0.20426 -1.129744,-0.45522 -1.449525,-0.93845 -0.225721,-0.34108 -0.479396,-1.13706 -0.8015,-2.81119 -0.322106,-1.67414 -0.722542,-4.22957 -1.288811,-8.12302 -0.396886,-2.728839 -0.650701,-4.362435 -0.866614,-5.406391 -0.215913,-1.043956 -0.398621,-1.512006 -0.65319,-1.873271 l -0.375687,-0.533302 a 0.17118525,0.17118525 0 0 0 -0.142111,-0.07235 z" />
        <path
           id="path1199"
           style="fill:#ffffff;stroke-width:0.132292"
           d="m -8.4862417,90.920713 c -1.9177633,0.0078 -4.4703443,0.112887 -6.7572093,0.270269 -2.286868,0.157382 -4.296307,0.363162 -5.170228,0.587044 -1.012174,0.2593 -1.867017,0.728594 -2.261878,1.283126 -0.32656,0.45861 -0.657244,1.408147 -1.223182,3.625101 -0.565936,2.216955 -1.358339,5.697267 -2.566768,11.185367 -0.866294,3.9343 -1.36112,6.35665 -1.567863,7.89616 -0.10337,0.76975 -0.135279,1.31913 -0.102835,1.73167 0.03244,0.41255 0.132987,0.69387 0.296105,0.90124 0.37592,0.47791 1.198013,0.8597 2.45618,1.19889 1.836553,0.49512 4.033372,0.16758 5.477188,-0.82579 0.171754,-0.11817 0.491079,-0.38738 0.887282,-0.73742 0.396203,-0.35004 0.863233,-0.77758 1.306381,-1.19993 1.200163,-1.14382 1.805762,-1.61738 2.42104,-1.90531 0.796094,-0.37253 0.863709,-0.38166 2.071709,-0.32866 1.051557,0.0461 1.359829,0.10947 1.891874,0.38654 0.800526,0.41689 1.5281591,1.1127 2.4510126,2.36058 0.6351825,0.85889 1.146511,1.37064 2.0122805,1.66192 0.8657696,0.29127 2.0677796,0.3705 4.1258463,0.42168 1.6067934,0.04 2.54742421,0.0411 3.1708672,-0.0512 0.6234404,-0.0923 0.9415489,-0.29831 1.220597,-0.62994 0.2205752,-0.26219 0.3499644,-0.50986 0.3503665,-0.92811 5.292e-4,-0.41825 -0.107651,-1.01341 -0.3198786,-2.06241 C 0.92133345,111.99856 -3.0031676,95.741971 -3.746996,93.277161 -3.955866,92.58504 -4.1886967,92.086009 -4.5081916,91.727901 -4.827684,91.36979 -5.2332214,91.16228 -5.7499738,91.051456 -6.2224614,90.950124 -7.2077142,90.915516 -8.4862417,90.920713 Z m -4.7671513,11.480437 c 0.03703,-0.007 0.07077,-0.003 0.106452,0.009 0.09526,0.0336 0.225886,0.16529 0.356053,0.42116 0.358984,0.70568 0.612762,1.56264 0.723469,2.33578 0.110709,0.77314 0.06869,1.46671 -0.11162,1.81539 -0.08892,0.17196 -0.399182,0.50424 -0.649573,0.67438 -0.313423,0.21298 -0.501799,0.29734 -0.657326,0.28836 -0.155525,-0.009 -0.328922,-0.11417 -0.610298,-0.36122 -0.457235,-0.40146 -0.69282,-0.72077 -0.766877,-1.10898 -0.07406,-0.38821 0.01511,-0.87047 0.263033,-1.58595 0.325501,-0.9393 0.617104,-1.61284 0.873332,-2.01952 0.128111,-0.20333 0.248171,-0.33885 0.346747,-0.40772 0.04929,-0.0344 0.08958,-0.0535 0.126608,-0.061 z" />
        <path
           id="path911"
           style="fill:#ffffff;stroke-width:0.187089"
           d="m -6.9256128,83.19612 c -11.8869382,0.0029 -16.5951432,0.185613 -41.1706132,1.596803 -3.267787,0.187645 -6.263394,0.378883 -8.458399,0.535884 -1.097504,0.0785 -1.995146,0.148408 -2.62723,0.205156 -0.316042,0.02837 -0.565423,0.05294 -0.74259,0.07441 -0.08859,0.01074 -0.158533,0.02093 -0.212908,0.03049 -0.02719,0.0048 -0.05006,0.009 -0.07286,0.01498 -0.02281,0.006 -0.03495,-0.006 -0.100254,0.04754 -0.07905,0.06482 -0.126367,0.141314 -0.181901,0.238747 -0.05553,0.09743 -0.111492,0.21485 -0.168981,0.347266 -0.114972,0.264827 -0.233876,0.589793 -0.338479,0.917773 -0.104606,0.327978 -0.195016,0.658075 -0.252182,0.933276 -0.02858,0.137601 -0.04865,0.260844 -0.05788,0.367935 -0.0092,0.107092 -0.01728,0.190798 0.02273,0.295073 0.06399,0.166775 0.190394,0.260189 0.350882,0.374656 0.160489,0.114464 0.358892,0.225721 0.566375,0.313158 0.563751,0.237575 1.520354,0.289451 3.566705,0.174149 2.046354,-0.115303 5.179071,-0.41047 10.047449,-0.921907 4.37257,-0.459353 9.216398,-0.946158 10.7549,-1.081587 3.242426,-0.285422 12.887121,-0.308936 23.289535,-0.148828 10.4024108,0.160107 21.5813978,0.501732 27.942478,0.937926 1.535841,0.105318 2.416892,0.179375 2.876828,0.262517 0.201441,0.03641 0.287076,0.07562 0.328663,0.09767 -0.03527,0.02418 -0.0756,0.05126 -0.136427,0.08733 -0.150088,0.08901 -0.368898,0.207322 -0.636654,0.344683 -0.535508,0.274722 -1.26815,0.625954 -2.064988,0.984951 -3.550153,1.599449 -4.832744,2.323854 -5.8182509,3.309361 -1.3983123,1.398312 -2.1182171,3.454469 -2.1182171,5.969661 0,1.885827 0.2549631,3.288677 0.9741006,4.510837 0.7191375,1.22215 1.8890084,2.24802 3.6840134,3.41839 1.467898,0.95709 2.339885,1.60696 2.769341,2.1115 0.214725,0.25227 0.317177,0.46122 0.349848,0.65732 0.03267,0.19611 -0.0013,0.39163 -0.09973,0.62942 -0.19132,0.46189 -0.431014,0.66438 -0.939477,0.71055 -0.508463,0.0462 -1.29276,-0.11311 -2.43396,-0.49144 -0.792848,-0.26284 -1.538328,-0.35652 -2.5001066,-0.31729 l -1.3389372,0.0543 a 0.19229851,0.19229851 0 0 0 -0.164846,0.108 l -1.098124,2.24534 c -0.3042946,0.62207 -0.5901504,1.27108 -0.8061536,1.81901 -0.2160535,0.54807 -0.3634899,0.97297 -0.3922236,1.23765 -0.109781,1.01123 0.395224,2.10615 1.2076773,2.49184 0.1627373,0.0773 0.4335966,0.13578 0.8686827,0.22531 0.4350834,0.0895 1.0090414,0.19429 1.6774159,0.30748 1.3367521,0.22637 3.0503551,0.48528 4.7702521,0.71365 1.21679,0.16156 4.363694,-0.0317 5.501471,-0.34158 3.496331,-0.95225 6.78942,-3.84332 8.685776,-7.59747 1.252365,-2.47927 1.308735,-4.93966 0.157096,-7.26984 -0.455594,-0.92184 -0.880554,-1.55304 -1.663464,-2.17506 -0.782908,-0.62203 -1.912737,-1.23857 -3.808553,-2.19057 -0.833882,-0.418733 -1.600152,-0.825702 -2.160074,-1.143078 -0.279964,-0.158689 -0.508548,-0.295317 -0.665594,-0.397391 -0.07163,-0.04656 -0.123661,-0.08378 -0.161229,-0.112657 0.01283,-0.0159 0.02326,-0.03147 0.05529,-0.05633 0.09045,-0.07019 0.252929,-0.154551 0.452171,-0.227375 0.398478,-0.14565 0.947965,-0.253058 1.436603,-0.250632 0.484774,0.0024 1.299559,0.19309 1.943033,0.466122 1.971255,0.836427 2.731662,1.087181 3.303675,0.943613 0.417208,-0.104712 0.865203,-0.422876 1.293461,-0.841293 0.42826,-0.418415 0.828728,-0.94066 1.099158,-1.474327 0.612124,-1.207972 1.211535,-3.506812 1.214395,-4.69894 0.0011,-0.458753 0.05358,-1.154856 0.112139,-1.50895 l 0.08785,-0.528135 2.676324,-0.119372 c 0.781667,-0.0349 1.558457,-0.08766 2.182813,-0.144177 0.624353,-0.05652 1.068871,-0.10615 1.289843,-0.174667 1.214779,-0.376669 1.788526,-1.970019 1.242301,-3.27732 -0.129098,-0.308975 -0.239482,-0.569788 -0.457337,-0.783412 -0.217856,-0.213628 -0.526034,-0.35695 -1.003038,-0.46509 C 36.049985,85.35281 34.36991,85.252684 31.043635,85.054908 27.725797,84.857637 21.973753,84.482622 18.263535,84.221886 6.024876,83.361797 1.9035541,83.193988 -6.9256234,83.196107 Z" />
        <path
           id="path697"
           style="fill:#ffffff;stroke-width:0.374176"
           d="m 7.5132975,58.473599 c -4.0395895,-0.0066 -7.16160402,1.197771 -9.8763983,3.650423 -1.5425923,1.393639 -4.4933923,5.066436 -7.0636526,8.519376 -1.2851286,1.726472 -2.4626836,3.387458 -3.2923056,4.662765 -0.414811,0.637654 -0.741558,1.176118 -0.958599,1.595769 -0.108519,0.209825 -0.190238,0.386117 -0.244427,0.559654 -0.0271,0.08677 -0.04973,0.172183 -0.05375,0.28784 -0.004,0.115655 0.0077,0.305835 0.176734,0.474906 0.138096,0.138102 0.175429,0.123526 0.228409,0.145727 0.05298,0.0222 0.104572,0.04015 0.162783,0.05891 0.116416,0.03752 0.258098,0.07671 0.425296,0.119375 0.334394,0.08532 0.766675,0.181962 1.226799,0.272333 2.6404675,0.518612 4.385421,0.655822 5.9360698,-0.183968 1.5506515,-0.83979 2.7553126,-2.526424 4.5738812,-5.449797 2.3727753,-3.814265 3.8054888,-5.817709 5.2012346,-6.683829 0.6978703,-0.43306 1.390777,-0.614513 2.2949482,-0.630969 0.9041712,-0.01646 2.0128495,0.148278 3.4375169,0.428398 2.0904543,0.411027 3.5677823,0.577046 4.8095273,0.413411 1.241742,-0.163635 2.219912,-0.685865 3.179132,-1.528072 0.65686,-0.576731 1.327452,-1.393629 1.822112,-2.131136 0.24733,-0.368753 0.448659,-0.712955 0.581361,-1.021126 0.06635,-0.154086 0.117925,-0.296436 0.142107,-0.460954 0.02418,-0.164518 0.04087,-0.417506 -0.182416,-0.640788 -0.149077,-0.149076 -0.159248,-0.112716 -0.194821,-0.128157 -0.03557,-0.01544 -0.06672,-0.02662 -0.10232,-0.03928 -0.0712,-0.02531 -0.157123,-0.05316 -0.263549,-0.08578 -0.212852,-0.06525 -0.503996,-0.148843 -0.856795,-0.246497 -0.705596,-0.195307 -1.656881,-0.44629 -2.688724,-0.70745 C 12.693146,58.904559 9.937053,58.47756 7.5132925,58.473596 Z" />
        <path
           style="fill:#000000;stroke-width:0.264583"
           d="m -17.639616,212.52809 c -36.70142,-2.48369 -68.07151,-27.89002 -77.667185,-62.90188 -3.28196,-11.97492 -3.95495,-24.51202 -1.94243,-36.18561 3.10695,-18.021727 11.104085,-33.519801 23.900075,-46.317186 3.99151,-3.991936 6.73146,-6.329584 10.98515,-9.372224 11.68097,-8.355328 24.6337,-13.402884 39.82959,-15.521202 4.74794,-0.661866 17.07415,-0.664556 21.69584,-0.0047 17.03631,2.432209 30.24446,7.974059 43.52396,18.2617 3.68731,2.856568 11.20113,10.399688 14.13707,14.192194 9.023,11.655501 14.67596,24.449831 17.06826,38.630578 1.66692,9.88093 1.35871,21.90655 -0.82048,32.01317 -5.05634,23.45029 -20.58466,44.27271 -41.95154,56.25417 -14.68192,8.23288 -31.87211,12.09376 -48.75831,10.95102 z m 24.1004,-15.44242 c 1.97736,-0.22478 4.41814,-0.5823 5.42396,-0.79449 3.41549,-0.72055 3.95287,-1.19122 2.58683,-2.26575 -0.94976,-0.74707 -2.1541,-0.71258 -9.48932,0.27179 -4.91125,0.65908 -7.37014,0.84348 -12.74382,0.95569 -6.96176,0.14536 -10.26174,-0.0169 -22.76275,-1.11949 -6.75943,-0.59617 -9.69612,-0.62173 -10.02643,-0.0873 -0.22093,0.35746 1.9835,1.19152 4.69738,1.7773 2.83957,0.61291 8.28529,1.26307 13.45124,1.60593 5.56181,0.36914 24.58483,0.14261 28.86291,-0.3437 z m -18.82021,-4.89192 c 1.93444,-1.0001 1.93451,-0.99883 -0.49934,-8.5225 -1.58704,-4.90594 -2.57196,-7.47435 -3.63302,-9.4739 -0.80064,-1.50879 -1.35667,-2.82919 -1.23562,-2.93422 0.12104,-0.10503 1.17258,-0.46308 2.33674,-0.79565 5.21636,-1.49019 8.17412,-4.07309 9.63701,-8.41562 0.83351,-2.47423 0.61561,-5.03971 -0.63302,-7.4532 -0.72471,-1.4008 -3.04173,-3.70597 -4.43431,-4.41165 -2.57707,-1.3059 -6.47583,-1.76884 -9.5176,-1.13012 -3.49243,0.73336 -7.23051,3.15302 -8.512,5.50983 -0.69473,1.27769 -0.74942,1.57097 -0.6375,3.41906 0.13803,2.27927 0.83371,4.18869 2.27889,6.25482 1.49034,2.1307 3.53066,4.37029 4.74092,5.20397 0.61847,0.42602 1.12448,0.87627 1.12448,1.00054 0,0.12428 -2.58961,0.27265 -5.75468,0.32972 -9.12337,0.16448 -8.68004,-0.40586 -8.43406,10.85034 0.18343,8.39334 0.33764,9.45379 1.50017,10.31607 0.73622,0.54608 3.91595,0.94263 5.12505,0.63917 0.38305,-0.0961 1.53186,-0.94145 2.55292,-1.87847 3.03931,-2.78918 4.31386,-2.76771 7.25957,0.12226 0.91147,0.89423 1.98185,1.67363 2.51354,1.83025 1.19778,0.35283 3.03637,0.1522 4.22186,-0.4607 z m -13.61821,-10.29221 c 0.1043,-0.83674 0.32638,-1.61105 0.49351,-1.72069 0.31662,-0.2077 1.58568,1.10623 2.40013,2.485 l 0.4472,0.75705 h -1.76523 -1.76524 z m 7.61041,-20.92794 c -1.40632,-2.07355 -0.97471,-3.74445 0.96723,-3.74445 0.92487,0 2.40621,1.19921 2.40621,1.94793 0,0.36093 -1.95716,2.86202 -2.35198,3.00562 -0.0889,0.0323 -0.54852,-0.51177 -1.02146,-1.2091 z m 22.29115,30.66467 c 2.86395,-0.74896 6.06247,-2.37909 7.9246,-4.03878 3.30302,-2.94394 2.93546,-4.23882 -2.40512,-8.47296 -1.65327,-1.31075 -3.00594,-2.46382 -3.00594,-2.56237 0,-0.40508 0.68029,-0.81418 1.3539,-0.81418 0.39539,0 1.27505,0.2384 1.95481,0.52977 2.78554,1.19403 4.70672,0.86281 5.64324,-0.97291 0.54537,-1.06902 1.14668,-4.26065 0.83859,-4.45106 -0.0998,-0.0617 -1.83741,-0.24858 -3.86147,-0.41541 -2.02406,-0.16683 -3.71462,-0.335 -3.7568,-0.37372 -0.0422,-0.0387 1.38656,-0.35339 3.175,-0.69927 l 3.25169,-0.62886 0.0739,-3.68375 c 0.0556,-2.76954 -0.0101,-3.73706 -0.26459,-3.89855 -0.18617,-0.11815 -1.26597,-0.21663 -2.39955,-0.21886 -2.21228,-0.004 -3.88833,-0.59582 -4.40057,-1.55295 -0.23216,-0.43378 -0.1065,-0.52136 1.11563,-0.77756 0.75749,-0.15879 1.91303,-0.36873 2.56788,-0.46652 2.92546,-0.43691 5.22641,-1.70672 6.454,-3.56173 1.38943,-2.09958 1.1814,-3.66491 -0.58832,-4.42683 -0.79207,-0.34102 -2.04297,-0.4146 -6.79173,-0.39951 -5.3558,0.017 -5.94765,0.0659 -7.40833,0.61167 -4.33955,1.62148 -6.99208,5.16445 -7.21975,9.64334 -0.19945,3.92386 1.23032,6.22138 5.44255,8.74567 1.19574,0.71658 2.17408,1.3671 2.17408,1.44559 0,0.0785 -1.55055,0.65445 -3.44566,1.2799 -5.19134,1.71333 -6.73773,3.14896 -6.7385,6.25592 -5.3e-4,2.62068 1.38402,4.46817 4.2788,5.70902 2.36184,1.0124 4.90247,3.31708 3.32567,3.01681 -0.25466,-0.0485 -1.86336,-0.23542 -3.57489,-0.41539 -3.10798,-0.32681 -3.11269,-0.32645 -3.77071,0.29173 -0.75101,0.70553 -1.18359,2.01664 -1.18574,3.59381 -0.002,1.24577 0.5507,1.89675 1.90592,2.24608 1.49981,0.38659 7.01728,0.0686 9.3374,-0.53814 z m -36.4352,-21.86499 c 1.12164,-0.23125 2.07351,-0.45391 2.11525,-0.49481 0.0932,-0.0913 -1.66046,-11.85795 -2.22957,-14.95974 -0.49066,-2.67421 -0.86927,-3.64461 -1.71483,-4.39512 -1.34381,-1.19276 -2.96083,-1.3824 -7.27085,-0.85273 l -2.50949,0.30839 0.169,0.81609 c 0.68448,3.30545 3.39179,14.82902 3.73485,15.89733 0.66752,2.07865 1.35265,3.25889 2.13968,3.68588 0.95335,0.51724 3.04106,0.51526 5.56595,-0.005 z m -1.97498,-22.6945 c 2.11513,-0.88375 2.41631,-2.91605 1.26296,-8.52192 -0.45128,-2.19335 -0.82049,-4.15849 -0.82049,-4.36697 0,-0.2188 0.67575,-0.64109 1.5983,-0.99882 2.21301,-0.85812 2.55908,-1.44164 2.1137,-3.56408 -0.18862,-0.89887 -0.42141,-2.75022 -0.5173,-4.11413 -0.26216,-3.72854 0.50773,-3.4733 -10.4766,-3.4733 h -9.07535 l 0.37178,1.65365 c 1.91758,8.52922 1.97803,8.65954 4.6122,9.94256 1.81538,0.88421 2.13491,1.50038 3.0421,5.86629 1.05122,5.0591 2.01738,6.65077 4.59658,7.57248 1.25048,0.44687 2.22975,0.44813 3.29212,0.004 z m 31.81851,-0.77845 c 0.38937,-0.45268 0.63735,-1.07215 0.63549,-1.5875 -0.005,-1.41743 -5.37386,-20.65088 -6.09576,-21.83794 -0.82092,-1.34989 -1.61211,-1.57863 -6.22735,-1.80034 -6.63497,-0.31875 -7.11552,-0.30001 -7.78506,0.30355 -0.32286,0.29105 -0.69437,0.80996 -0.82558,1.15315 -0.20742,0.5425 -3.42697,16.53805 -4.17293,20.73216 -0.53557,3.01122 0.24042,3.64274 4.4795,3.64551 2.58066,0.002 3.15172,-0.26335 3.95342,-1.83481 1.40131,-2.74679 4.46497,-3.48286 6.35946,-1.5279 0.45338,0.46785 1.20409,1.3021 1.66823,1.85388 1.14549,1.36173 2.44863,1.79307 5.16631,1.71 2.04929,-0.0626 2.25101,-0.12006 2.84427,-0.80976 z m -12.18771,-10.91643 c -0.95488,-0.49791 -1.19073,-0.83778 -1.18152,-1.70267 0.01,-0.91406 0.95156,-2.64502 1.15171,-2.11667 0.54076,1.42755 1.2144,3.57863 1.2144,3.87788 0,0.45662 -0.21719,0.44589 -1.18459,-0.0585 z m 24.30573,11.53786 c 0.85559,-0.32529 1.37658,-1.35953 1.60509,-3.18636 0.25978,-2.0768 0.95921,-6.19448 1.07122,-6.30649 0.0521,-0.0521 0.86744,0.21451 1.81196,0.59237 1.9244,0.76989 3.92614,0.89428 5.281,0.32819 2.68593,-1.12226 6.37527,-8.05693 5.89251,-11.0759 -0.36798,-2.30123 -2.33579,-4.68165 -4.3095,-5.21311 -2.08837,-0.56235 -14.64904,-1.33095 -16.04105,-0.98158 -1.39487,0.35009 -1.51182,0.87711 -2.04621,9.22143 -0.7495,11.70325 -0.8692,14.34965 -0.68268,15.09279 0.25661,1.02242 2.2125,1.67314 5.24752,1.74585 0.82727,0.0198 1.80383,-0.0779 2.17014,-0.21719 z m 2.61651,-15.145 c 0.14931,-0.62603 0.37692,-1.58393 0.5058,-2.12866 0.1692,-0.71516 0.46198,-1.10815 1.05346,-1.41401 0.97332,-0.50332 1.17217,-0.31041 1.42878,1.38611 0.28823,1.90555 -0.29883,2.65771 -2.43271,3.11688 l -0.82681,0.17791 z m -32.68881,-12.65647 c 0.62168,-0.26976 1.79711,-1.2085 2.64584,-2.11309 1.99491,-2.12619 3.17064,-2.73435 4.99386,-2.58316 1.64126,0.13611 2.85355,0.94694 4.07918,2.72832 1.23375,1.7932 1.97192,2.0746 5.75477,2.19379 3.75754,0.11839 4.39969,0.007 4.96831,-0.86068 0.39247,-0.59899 0.24911,-1.34 -2.50986,-12.97288 -1.60936,-6.785677 -3.11276,-12.698547 -3.34089,-13.139697 -0.80466,-1.55604 -1.55658,-1.66701 -8.81865,-1.30144 -6.7194,0.33825 -8.38171,0.62359 -9.44341,1.62101 -0.85797,0.80602 -1.08387,1.6218 -3.70031,13.363367 -2.49089,11.17808 -2.5609,11.87705 -1.27403,12.72023 0.97601,0.63951 3.25254,1.13449 4.46821,0.97151 0.58209,-0.078 1.56173,-0.36031 2.17698,-0.62728 z m 6.27767,-11.75308 c -0.82086,-0.82086 -0.8144,-1.31417 0.0454,-3.4618 0.8361,-2.08854 1.30765,-2.14931 1.974,-0.25439 0.70634,2.00867 0.64892,3.15663 -0.19093,3.81726 -0.88608,0.69699 -1.03882,0.68854 -1.82843,-0.10107 z m 33.24612,12.28562 c 3.33593,-0.63264 6.19461,-2.64013 8.32683,-5.84744 2.32771,-3.50138 2.71466,-6.2315 1.29459,-9.134 -0.90951,-1.85897 -1.80066,-2.5543 -5.48312,-4.27825 -1.70987,-0.800477 -3.10885,-1.536667 -3.10885,-1.635987 0,-0.32646 1.33012,-0.79467 2.25754,-0.79467 0.50583,0 1.60941,0.36676 2.48567,0.82609 1.96893,1.03208 3.0308,0.92195 4.22504,-0.43823 1.01235,-1.153 1.92911,-4.09228 1.97645,-6.33681 l 0.0355,-1.68355 3.23454,-0.0864 c 2.95191,-0.0788 3.28714,-0.13901 3.83646,-0.68901 0.83748,-0.83852 0.84128,-2.71515 0.007,-3.54925 -0.55107,-0.55108 -0.92006,-0.60886 -5.02708,-0.7873 -2.43779,-0.10591 -8.54001,-0.49216 -13.56047,-0.85832 -15.58606,-1.13676 -20.03734,-1.29772 -31.22084,-1.12895 -10.37672,0.15659 -15.30782,0.37729 -36.62909,1.6394 -6.10325,0.36128 -11.29338,0.65687 -11.53364,0.65687 -0.30507,0 -0.58473,0.48849 -0.92718,1.61949 -0.47255,1.56074 -0.473,1.63216 -0.0123,1.96903 1.01821,0.74454 3.1535,0.68023 12.85427,-0.3871 13.96473,-1.53647 17.30616,-1.71189 29.10417,-1.52794 18.42724,0.28731 36.63396,0.98248 37.43229,1.42925 0.38339,0.21456 0.0955,0.41266 -1.6157,1.1117 -5.96269,2.43583 -7.5567,3.60372 -8.553,6.26658 -0.73139,1.95481 -0.73731,5.113187 -0.0132,7.048497 0.65218,1.74312 1.88162,2.96917 4.6304,4.61764 2.29517,1.37643 3.01982,2.30968 2.51943,3.24467 -0.44933,0.83957 -1.481,0.94527 -3.01612,0.30899 -1.98736,-0.82371 -4.66118,-0.74701 -4.66118,0.13371 0,0.20785 -0.47625,1.27679 -1.05834,2.37544 -1.16346,2.19596 -1.23505,2.60493 -0.68599,3.91901 0.424,1.01478 0.34912,0.98993 5.18391,1.72031 3.8574,0.58273 5.73213,0.65003 7.7018,0.27649 z m -50.5643,-3.69868 c 0,-1.74625 -0.0893,-3.17746 -0.19845,-3.18045 -0.10914,-0.003 -1.97293,-0.12038 -4.14176,-0.26085 -4.2275,-0.2738 -4.87475,-0.48224 -5.54806,-1.78672 -0.39655,-0.76829 -1.11251,-4.89185 -2.17017,-12.499067 -0.46697,-3.35871 -0.77967,-4.81185 -1.13867,-5.29166 l -0.49491,-0.66146 -4.99013,0.0934 c -2.75932,0.0516 -5.4059,0.22903 -5.92015,0.39687 -0.8171,0.26668 -0.93993,0.42334 -1.01181,1.29054 -0.0515,0.62109 0.30807,2.19053 0.96982,4.23333 1.4547,4.490607 3.29442,10.831907 4.25568,14.668877 1.00695,4.01933 1.20534,4.54204 2.06639,5.44463 l 0.69414,0.72761 h 8.81403 8.81405 z m 25.79687,-37.541743 c 1.43821,-0.663776 1.8071,-1.126969 4.65894,-5.849927 2.73457,-4.528751 3.8082,-5.872432 5.3005,-6.633743 1.32789,-0.67744 3.53833,-0.660581 6.05317,0.04617 3.59603,1.010592 6.0265,0.562519 8.0063,-1.476013 0.84919,-0.874383 2.03212,-3.179834 1.75002,-3.410682 -0.22069,-0.180597 -6.27399,-1.738545 -7.90955,-2.035693 -2.51186,-0.456354 -6.45684,-0.409109 -8.40014,0.100599 -3.69252,0.968513 -5.86799,2.61338 -9.11622,6.892755 -1.33981,1.765123 -3.4644,4.519004 -4.72131,6.119733 -2.73063,3.477565 -3.05826,3.982853 -3.28309,5.063239 l -0.1727,0.829905 2.06496,0.393727 c 2.88287,0.54968 4.51589,0.538337 5.76912,-0.04007 z"
           id="path603" />
      </g>
    </g>
  </g>
</svg>
